<svg xmlns="http://www.w3.org/2000/svg" xmlns:xlink="http://www.w3.org/1999/xlink" fill="none" version="1.1" width="207.5380859375" height="44.387420654296875" viewBox="0 0 207.5380859375 44.387420654296875"><g><g transform="matrix(5.268959999084473,0,0,5.268959999084473,0.00025515753293525734,0.000003590376758177971)"><g><path d="M0.7876028174704314,6.736792446311023C0.6693798174704313,6.736792446311023,0.5511578174704314,6.716922446311023,0.4332548174704313,6.683802446311023C0.3086248174704313,6.644052446311023,0.20994581747043134,6.577972446311023,0.12472281747043133,6.485232446311023C0.04590811747043133,6.386032446311023,0.00009281747043132782,6.260342446311023,0.00009281747043132782,6.094902446311023C0.00009281747043132782,6.002162446311023,0.039500317470431326,5.896332446311023,0.10517981747043133,5.777262446311023C0.17726681747043133,5.664652446311023,0.25608181747043135,5.605202446311023,0.3608478174704313,5.605202446311023C0.30189681747043134,5.684522446311023,0.2756248174704313,5.7838924463110235,0.2756248174704313,5.896332446311023C0.2756248174704313,6.015412446311023,0.3281688174704313,6.114772446311023,0.4265268174704313,6.194102446311023C0.5248858174704313,6.280212446311023,0.6825158174704313,6.319792446311023,0.8990968174704314,6.319792446311023C1.1483628174704312,6.319792446311023,1.4107528174704314,6.247092446311023,1.6862828174704314,6.108142446311023C1.9621428174704314,5.962582446311023,2.2376728174704312,5.777262446311023,2.5196128174704313,5.538962446311023C2.8018728174704313,5.307432446311023,3.0774028174704315,5.049262446311023,3.346532817470431,4.764742446311023C3.615652817470431,4.480232446311023,3.8649128174704312,4.188932446311023,4.094632817470432,3.897792446311023C4.357032817470431,3.566912446311023,4.625832817470432,3.242652446311023,4.894952817470432,2.925022446311023C5.164082817470431,2.607382446311023,5.420072817470431,2.322872446311023,5.675742817470431,2.0646924463110228C5.9317228174704315,1.813302446311023,6.154712817470432,1.6147424463110231,6.351752817470431,1.475792446311023C6.417112817470431,1.429422446311023,6.5289228174704315,1.356562446311023,6.679832817470431,1.250735446311023C6.837142817470431,1.144911446311023,7.034172817470432,1.045549446311023,7.276712817470432,0.9595974463110231C7.034172817470432,0.9662214463110231,6.778192817470432,0.9595974463110231,6.509062817470431,0.9463494463110231C6.2466628174704315,0.9331014463110231,5.990682817470431,0.9066044463110231,5.741412817470431,0.8734844463110231C5.603652817470431,0.853611446311023,5.459152817470431,0.833901446311023,5.314982817470431,0.8206534463110231C5.170492817470431,0.807404446311023,5.026312817470432,0.8007804463110231,4.875412817470432,0.8007804463110231C4.474932817470432,0.8007804463110231,4.094632817470432,0.853611446311023,3.7402828174704315,0.9595974463110231C3.3859328174704313,1.065421446311023,3.1168128174704313,1.250735446311023,2.9265028174704315,1.5153724463110232C2.815012817470431,1.6741924463110232,2.7560528174704313,1.833172446311023,2.7560528174704313,1.985362446311023C2.7560528174704313,2.091192446311023,2.782332817470431,2.177142446311023,2.8281428174704315,2.2433824463110232C2.8544128174704313,2.269882446311023,2.8806828174704315,2.296372446311023,2.913362817470431,2.329492446311023C2.9463628174704315,2.355832446311023,2.9723128174704314,2.369082446311023,2.9921828174704315,2.369082446311023C2.9659128174704312,2.3955724463110233,2.933232817470431,2.408822446311023,2.8938228174704315,2.408822446311023C2.847682817470431,2.408822446311023,2.8082828174704315,2.3955724463110233,2.7624628174704315,2.3757024463110232C2.7230528174704314,2.355832446311023,2.6836528174704313,2.329492446311023,2.6573728174704314,2.303002446311023C2.5920228174704314,2.230132446311023,2.5458828174704315,2.144182446311023,2.5132028174704315,2.051442446311023C2.480202817470431,1.952242446311023,2.4606628174704315,1.859502446311023,2.4606628174704315,1.7669324463110232C2.4606628174704315,1.5816224463110231,2.5064728174704314,1.4228024463110232,2.598422817470431,1.297102446311023C2.782332817470431,1.045549446311023,3.0184528174704313,0.8602364463110231,3.3071228174704315,0.741163446311023C3.5957928174704312,0.6220914463110231,3.9632728174704313,0.5624744463110232,4.4028428174704315,0.5624744463110232C4.593152817470432,0.5624744463110232,4.796602817470431,0.5757224463110231,5.019582817470432,0.6022184463110231C5.242892817470431,0.6220914463110231,5.485432817470431,0.655211446311023,5.748142817470431,0.6947944463110232C6.010542817470431,0.7345394463110231,6.286072817470432,0.767660446311023,6.568332817470432,0.787532446311023C6.857002817470431,0.8140284463110231,7.125802817470431,0.8206534463110231,7.381792817470432,0.8206534463110231C7.6704628174704315,0.8206534463110231,7.919722817470431,0.807404446311023,8.123172817470431,0.7809084463110231C8.333342817470431,0.747787446311023,8.45797281747043,0.701419446311023,8.503792817470432,0.6353394463110231L8.523652817470431,0.6353394463110231C8.575872817470431,0.6353394463110231,8.59574281747043,0.6618354463110231,8.58260281747043,0.7212914463110232C8.562742817470431,0.8007804463110231,8.516922817470432,0.853611446311023,8.451242817470431,0.8801084463110231C8.379162817470432,0.8999804463110231,8.30707281747043,0.9264774463110231,8.228252817470432,0.9595974463110231C7.755682817470431,1.3896824463110231,7.329252817470431,1.846262446311023,6.948632817470432,2.329492446311023C6.568332817470432,2.805942446311023,6.207262817470431,3.289022446311023,5.866052817470432,3.778722446311023C5.6494628174704316,4.0831124463110235,5.439612817470431,4.387492446311023,5.236172817470432,4.685252446311023C5.0327228174704315,4.989642446311023,4.8360028174704315,5.274312446311023,4.645692817470431,5.545582446311023C4.816142817470431,5.4463824463110235,5.039452817470432,5.267692446311023,5.321392817470431,5.002892446311023C5.603652817470431,4.738252446311023,5.8990428174704315,4.427242446311023,6.220392817470431,4.076482446311023C6.542062817470431,3.725732446311023,6.857002817470431,3.374972446311023,7.165212817470431,3.0175924463110233C7.434342817470431,2.7065824463110233,7.729412817470432,2.388952446311023,8.044672817470431,2.0646924463110228C8.359612817470431,1.7470624463110231,8.680962817470432,1.449292446311023,9.015762817470431,1.1778704463110232C9.350252817470432,0.9066044463110231,9.67832281747043,0.6881704463110231,9.99326281747043,0.522729446311023C10.314892817470431,0.35066434631102306,10.603592817470432,0.2647124463110231,10.865992817470431,0.2647124463110231C11.043192817470432,0.2647124463110231,11.213592817470431,0.3044571463110231,11.37769281747043,0.3837844463110231C11.541692817470432,0.4566504463110231,11.620492817470431,0.608843446311023,11.620492817470431,0.833901446311023C11.620492817470431,0.9066044463110231,11.60099281747043,0.986094446311023,11.554792817470432,1.078670446311023C11.508992817470432,1.1714074463110231,11.436892817470431,1.230863446311023,11.351392817470431,1.250735446311023C11.37769281747043,1.217614446311023,11.403892817470432,1.1714074463110231,11.417092817470431,1.1051664463110231C11.43019281747043,1.045549446311023,11.436892817470431,0.986094446311023,11.45009281747043,0.9397254463110231C11.45009281747043,0.8272774463110231,11.39749281747043,0.7345394463110231,11.305592817470432,0.6618354463110231C11.207192817470432,0.5823464463110231,11.056292817470432,0.5426014463110231,10.846092817470431,0.5426014463110231C10.583692817470432,0.5426014463110231,10.301792817470432,0.6220914463110231,9.99326281747043,0.7809084463110231C9.69146281747043,0.9331014463110231,9.37652281747043,1.138287446311023,9.06158281747043,1.3896824463110231C8.739912817470431,1.6478624463110232,8.43170281747043,1.9257524463110232,8.123172817470431,2.230132446311023C7.8213628174704315,2.534522446311023,7.539422817470431,2.832282446311023,7.283432817470431,3.123582446311023C7.007902817470431,3.441212446311023,6.7256428174704315,3.758852446311023,6.4433828174704315,4.0698624463110225C6.154712817470432,4.387492446311023,5.885912817470431,4.672002446311023,5.623192817470431,4.923562446311023C5.360802817470431,5.181582446311023,5.124672817470431,5.380142446311023,4.921232817470432,5.525712446311023C4.711372817470432,5.671282446311023,4.547332817470432,5.737522446311023,4.429112817470432,5.724272446311023C4.422702817470431,5.724272446311023,4.422702817470431,5.724272446311023,4.422702817470431,5.717642446311023C4.4028428174704315,5.717642446311023,4.383302817470431,5.697772446311023,4.3701628174704314,5.658032446311023C4.363432817470431,5.638322446311023,4.363432817470431,5.598572446311023,4.363432817470431,5.545582446311023C4.363432817470431,5.373512446311023,4.422702817470431,5.155082446311023,4.547332817470432,4.897062446311023C4.671972817470431,4.632422446311023,4.8360028174704315,4.354372446311023,5.039452817470432,4.049982446311024C5.242892817470431,3.752222446311023,5.459152817470431,3.454462446311023,5.688872817470432,3.156702446311023C5.912182817470431,2.8654024463110233,6.1284428174704315,2.6007624463110233,6.338622817470432,2.355832446311023C6.542062817470431,2.117682446311023,6.712512817470431,1.9257524463110232,6.850272817470431,1.786802446311023C7.001172817470431,1.634612446311023,7.165212817470431,1.4824224463110232,7.349112817470432,1.330222446311023C7.5262928174704316,1.1778704463110232,7.709872817470432,1.045549446311023,7.887042817470431,0.9397254463110231L7.736142817470431,0.9397254463110231C7.598372817470431,0.9463494463110231,7.440742817470431,0.9927184463110231,7.270302817470431,1.065421446311023C7.093132817470432,1.144911446311023,6.929092817470432,1.230863446311023,6.765052817470432,1.3368524463110232C6.601012817470432,1.442672446311023,6.456522817470431,1.548492446311023,6.331892817470432,1.654482446311023C6.154712817470432,1.806672446311023,5.944862817470431,2.0117024463110234,5.708742817470431,2.269882446311023C5.472292817470431,2.521272446311023,5.229762817470431,2.799322446311023,4.973772817470431,3.097082446311023C4.7177828174704315,3.4014724463110233,4.468522817470431,3.705852446311023,4.225672817470431,4.016862446311023C3.9828128174704314,4.327872446311023,3.727152817470431,4.645672446311023,3.4644328174704313,4.963302446311023C3.1956228174704315,5.280942446311023,2.9200928174704313,5.572082446311023,2.6314228174704315,5.836722446311023C2.3424428174704315,6.108142446311023,2.0473628174704315,6.326422446311023,1.7388328174704313,6.491862446311023C1.4370228174704314,6.657302446311023,1.1156828174704314,6.736792446311023,0.7876028174704314,6.736792446311023ZM6.791322817470431,5.982292446311023C6.633692817470432,5.982292446311023,6.5289228174704315,5.949332446311023,6.463252817470432,5.876462446311023C6.397572817470431,5.810222446311023,6.371292817470431,5.724272446311023,6.371292817470431,5.618442446311023C6.371292817470431,5.505832446311023,6.397572817470431,5.380142446311023,6.4433828174704315,5.247822446311023C6.489522817470431,5.115502446311023,6.555202817470431,4.983012446311023,6.627282817470431,4.850692446311023C6.817592817470431,4.519812446311023,7.0405828174704315,4.182312446311023,7.302982817470431,3.831552446311023C7.565372817470431,3.480962446311023,7.847642817470431,3.130202446311023,8.14303281747043,2.786072446311023C8.444842817470432,2.4419424463110233,8.739912817470431,2.124312446311023,9.028902817470431,1.833172446311023C9.173072817470432,1.694062446311023,9.330702817470431,1.561742446311023,9.501152817470432,1.429422446311023C9.671922817470431,1.297102446311023,9.835952817470432,1.1844944463110232,9.999992817470432,1.098542446311023C10.163992817470431,1.0059664463110232,10.308192817470431,0.9595974463110231,10.432792817470432,0.9595974463110231C10.347592817470431,1.0256774463110232,10.216292817470432,1.1515354463110232,10.039092817470431,1.3236024463110232C9.861902817470432,1.502292446311023,9.697872817470431,1.667732446311023,9.546972817470431,1.833172446311023C9.343842817470431,2.051442446311023,9.114122817470431,2.3162524463110232,8.864862817470431,2.620632446311023C8.60887281747043,2.925022446311023,8.359612817470431,3.236032446311023,8.11676281747043,3.553662446311023C7.867502817470431,3.8713024463110233,7.650922817470431,4.169062446311023,7.453882817470431,4.447112446311023C7.257162817470431,4.725002446311023,7.106262817470431,4.950062446311023,7.007902817470431,5.128752446311023C6.961772817470432,5.208072446311023,6.9223628174704315,5.2941924463110235,6.8964128174704316,5.380142446311023C6.863412817470431,5.466252446311023,6.850272817470431,5.545582446311023,6.850272817470431,5.618442446311023C6.850272817470431,5.744142446311023,6.9092228174704315,5.803762446311023,7.021042817470431,5.803762446311023C7.093132817470432,5.803762446311023,7.204622817470431,5.764012446311023,7.362252817470432,5.684522446311023C7.5262928174704316,5.591952446311023,7.683602817470431,5.472882446311023,7.828092817470432,5.320522446311023C7.972272817470431,5.174952446311023,8.123172817470431,5.009512446311023,8.287212817470431,4.824202446311023C8.30707281747043,4.824202446311023,8.32021281747043,4.830822446311023,8.32021281747043,4.850692446311023C8.32021281747043,4.877192446311023,8.30707281747043,4.916942446311023,8.28080281747043,4.963302446311023C8.260932817470431,5.009512446311023,8.241392817470432,5.042632446311023,8.228252817470432,5.069132446311023C7.972272817470431,5.373512446311023,7.729412817470432,5.605202446311023,7.500022817470431,5.757392446311023C7.270302817470431,5.909582446311023,7.034172817470432,5.982292446311023,6.791322817470431,5.982292446311023Z" fill="#767676" fill-opacity="1" style="mix-blend-mode:passthrough"/></g><g><path d="M8.405495034267306,5.9955382177953975C8.162642034267307,5.9955382177953975,8.044740034267306,5.856588217795398,8.044740034267306,5.578698217795398C8.044740034267306,5.419888217795398,8.090555334267306,5.227948217795398,8.182506034267305,5.002888217795398C8.274137034267307,4.784618217795398,8.411903034267306,4.552928217795398,8.595805034267306,4.308168217795398C8.726843034267306,4.142718217795398,8.884473034267307,3.964038217795398,9.074780034267306,3.7720982177953983C9.265090034267306,3.586782217795398,9.474940034267306,3.408093217795398,9.697930034267307,3.236027217795398C9.927650034267307,3.0639622177953982,10.157370034267306,2.918393217795398,10.393490034267305,2.812569217795398C10.629940034267307,2.699959517795398,10.859330034267305,2.647128217795398,11.082640034267307,2.647128217795398C11.181000034267306,2.647128217795398,11.253090034267306,2.666839017795398,11.292500034267306,2.693335417795398C11.325500034267307,2.726455917795398,11.351450034267305,2.7529522177953982,11.371310034267307,2.786073217795398C11.377720034267305,2.812569217795398,11.384450034267307,2.832280217795398,11.371310034267307,2.845528217795398C11.364580034267306,2.858776217795398,11.351450034267305,2.865400217795398,11.338310034267305,2.858776217795398C11.312360034267307,2.845528217795398,11.259820034267307,2.838904217795398,11.181000034267306,2.838904217795398C10.944880034267307,2.838904217795398,10.662620034267306,2.951514217795398,10.341270034267307,3.176411217795398C10.013190034267307,3.408093217795398,9.697930034267307,3.705858217795398,9.382990034267307,4.069858217795398C9.160010034267307,4.321248217795398,8.976424034267307,4.5661782177953985,8.831929034267306,4.804488217795399C8.687756034267306,5.049258217795398,8.589077034267307,5.247818217795398,8.543261034267307,5.406638217795399C8.530125034267307,5.459628217795398,8.523718034267306,5.505838217795398,8.523718034267306,5.5455782177953985C8.523718034267306,5.638318217795398,8.562805034267306,5.684528217795398,8.635212034267306,5.684528217795398C8.681027034267306,5.684528217795398,8.739979034267307,5.664648217795398,8.818794034267306,5.6184482177953985C8.897609034267306,5.578698217795398,9.002695034267306,5.505838217795398,9.127330034267306,5.400008217795398C9.324040034267306,5.227948217795398,9.514350034267306,5.022758217795398,9.711070034267307,4.791238217795398C9.901380034267307,4.559558217795399,10.098420034267306,4.321248217795398,10.288730034267306,4.083108217795398C10.479040034267307,3.838178217795398,10.662620034267306,3.619903217795398,10.839790034267306,3.414717217795398C11.023370034267305,3.209531217795398,11.194140034267306,3.050714217795398,11.358180034267306,2.944890217795398C11.568030034267306,2.805945217795398,11.712520034267307,2.726455917795398,11.797750034267306,2.706583617795398C11.876560034267307,2.6867113177953983,11.948650034267306,2.6734631177953982,12.001190034267307,2.666839017795398C11.968510034267307,2.706583617795398,11.896110034267306,2.799321217795398,11.784610034267306,2.944890217795398C11.673120034267306,3.0904592177953982,11.554890034267306,3.2426522177953983,11.430260034267306,3.408093217795398C11.299230034267307,3.566910217795398,11.200550034267305,3.705858217795398,11.122050034267307,3.811838217795398C11.003830034267306,3.983908217795398,10.879200034267306,4.169058217795398,10.741430034267307,4.367618217795398C10.610070034267306,4.5661782177953985,10.485440034267306,4.7514982177953975,10.380360034267307,4.923558217795398C10.268860034267306,5.102248217795398,10.196780034267306,5.247818217795398,10.157370034267306,5.360268217795398C10.124690034267307,5.472878217795398,10.111550034267307,5.552208217795398,10.111550034267307,5.605198217795398C10.111550034267307,5.711018217795398,10.150960034267307,5.764018217795398,10.236180034267306,5.764018217795398C10.295130034267306,5.764018217795398,10.367220034267307,5.737518217795398,10.446040034267305,5.691148217795398C10.531260034267307,5.638318217795398,10.616800034267307,5.585328217795398,10.702020034267306,5.519088217795398C10.807110034267307,5.426508217795398,10.911880034267305,5.327148217795398,11.016960034267306,5.221318217795398C11.108920034267307,5.122118217795398,11.213680034267306,5.009508217795398,11.318770034267306,4.8838182177953975C11.345040034267306,4.8838182177953975,11.358180034267306,4.903688217795398,11.358180034267306,4.9434282177953985C11.358180034267306,5.002888217795398,11.345040034267306,5.049258217795398,11.318770034267306,5.082378217795398C11.233550034267306,5.181578217795398,11.128460034267306,5.287558217795398,11.010240034267307,5.406638217795399C10.885610034267305,5.525708217795398,10.767700034267307,5.631698217795398,10.649480034267306,5.724268217795398C10.564260034267306,5.797138217795398,10.465900034267307,5.8632182177953975,10.354090034267307,5.916208217795399C10.242590034267305,5.969198217795398,10.137820034267307,5.9955382177953975,10.032740034267306,5.9955382177953975C9.881840034267306,5.9955382177953975,9.776750034267307,5.955948217795398,9.717800034267306,5.8830882177953985C9.658850034267306,5.8102182177953985,9.625850034267307,5.717648217795398,9.625850034267307,5.605198217795398C9.625850034267307,5.472878217795398,9.658850034267306,5.327148217795398,9.717800034267306,5.174948217795398C9.776750034267307,5.0161382177953975,9.842430034267306,4.870568217795398,9.914520034267307,4.731618217795399C9.829290034267306,4.837448217795398,9.717800034267306,4.963308217795398,9.586440034267307,5.115498217795398C9.455400034267306,5.261068217795398,9.337180034267305,5.386758217795398,9.232090034267307,5.485958217795398C9.087920034267306,5.6184482177953985,8.950152034267306,5.737518217795398,8.818794034267306,5.836718217795398C8.687756034267306,5.942708217795398,8.549669034267307,5.9955382177953975,8.405495034267306,5.9955382177953975Z" fill="#767676" fill-opacity="1" style="mix-blend-mode:passthrough"/></g><g><path d="M13.805592299892307,2.2500064948950076L13.786042299892307,2.2500064948950076C13.667822299892308,2.2500064948950076,13.608872299892306,2.1970134948950073,13.608872299892306,2.0911894948950076C13.608872299892306,1.9919894948950074,13.661092299892307,1.8992514948950074,13.766182299892307,1.8132994948950074C13.864542299892307,1.7205622948950074,13.969622299892308,1.6741934948950075,14.074712299892306,1.6741934948950075C14.192612299892307,1.6741934948950075,14.251882299892307,1.7338104948950075,14.251882299892307,1.8462584948950074C14.251882299892307,1.9456204948950075,14.205752299892307,2.0381964948950073,14.107392299892307,2.1176854948950075C14.015442299892307,2.2036374948950073,13.910672299892306,2.243382494895007,13.805592299892307,2.2500064948950076ZM8.307115299892306,8.391203494895008C8.215164299892306,8.391203494895008,8.123214299892306,8.391203494895008,8.024855299892307,8.377953494895007C7.932904299892306,8.371333494895008,7.847681299892306,8.351453494895008,7.775594299892306,8.324963494895007C7.723051299892306,8.298463494895007,7.670508299892306,8.265503494895007,7.611556299892307,8.212513494895006C7.559013399892306,8.172763494895008,7.519605899892307,8.113313494895007,7.500062299892306,8.033823494895007C7.572149199892307,8.100063494895007,7.657372299892306,8.139643494895008,7.749323299892306,8.172763494895008C7.841274299892306,8.199263494895007,7.952768299892306,8.212513494895006,8.083806299892306,8.205883494895009C8.431746299892307,8.205883494895009,8.753092299892307,8.119933494895008,9.061622299892306,7.941243494895008C9.363432299892306,7.769183494895008,9.652102299892306,7.537503494895008,9.921222299892307,7.246363494895007C10.190022299892306,6.955223494895008,10.446012299892306,6.630963494895007,10.682142299892305,6.2802134948950075C10.911862299892306,5.929453494895007,11.135162299892306,5.578703494895008,11.351432299892306,5.221323494895008C11.561602299892307,4.870573494895007,11.758322299892306,4.546313494895007,11.942222299892308,4.255173494895008L12.421202299892308,3.4610834948950076C12.572102299892308,3.2227834948950074,12.709862299892308,3.0573434948950076,12.827772299892306,2.9581434948950074C12.952722299892306,2.8587734948950074,13.070622299892307,2.792703494895007,13.182112299892307,2.7662034948950076C13.300342299892307,2.7330834948950073,13.418562299892306,2.7132134948950073,13.549602299892307,2.7065834948950074C13.411832299892307,2.8587734948950074,13.241382299892306,3.1037134948950076,13.031212299892307,3.434593494895007C12.821362299892307,3.7720934948950076,12.604782299892307,4.116223494895007,12.375062299892306,4.473603494895007C12.237292299892307,4.6918834948950074,12.073262299892306,4.950053494895007,11.882952299892306,5.241193494895008C11.699372299892307,5.538953494895008,11.489512299892306,5.843343494895008,11.259792299892306,6.167603494895007C11.030082299892307,6.485233494895008,10.787222299892306,6.796403494895007,10.524832299892307,7.087543494895008C10.262432299892307,7.385303494895007,9.980172299892306,7.643323494895007,9.691502299892306,7.868383494895007C9.396112299892307,8.093443494895007,9.101032299892307,8.252253494895008,8.792502299892305,8.344833494895006C8.681002299892306,8.377953494895007,8.516972299892306,8.391203494895008,8.307115299892306,8.391203494895008Z" fill="#767676" fill-opacity="1" style="mix-blend-mode:passthrough"/></g><g><path d="M13.372450514736057,6.035278217795398C13.182140514736057,6.035278217795398,13.051102514736057,5.982288217795398,12.965880514736057,5.889708217795398C12.887065014736056,5.790508217795399,12.847657514736056,5.671278217795399,12.847657514736056,5.525708217795398C12.847657514736056,5.340398217795398,12.900200914736056,5.122118217795398,13.004967514736057,4.870568217795398C13.116782514736057,4.619178217795398,13.260955514736056,4.367618217795398,13.444857514736057,4.109598217795398C13.628439514736057,3.851428217795398,13.831884514736057,3.606654217795398,14.061597514736057,3.388220217795398C14.290997514736056,3.163162217795398,14.527447514736057,2.991259217795398,14.770297514736056,2.852152217795398C15.006417514736057,2.713207717795398,15.236137514736056,2.647128217795398,15.459127514736057,2.647128217795398C15.623167514736057,2.647128217795398,15.741387514736056,2.693335417795398,15.813477514736057,2.779449217795398C15.885557514736057,2.865400217795398,15.924967514736057,2.978010217795398,15.924967514736057,3.116955217795398C15.924967514736057,3.302269217795398,15.872427514736057,3.5205412177953983,15.767337514736056,3.7720982177953983C15.662567514736056,4.030108217795398,15.518077514736056,4.288288217795398,15.340907514736056,4.546308217795398C15.157327514736057,4.8111082177953985,14.960287514736056,5.055878217795398,14.737297514736056,5.2809382177953985C14.520717514736056,5.505838217795398,14.290997514736056,5.684528217795398,14.054877514736056,5.823468217795398C13.818748514736056,5.962578217795398,13.589031514736057,6.035278217795398,13.372450514736057,6.035278217795398ZM13.490673514736056,5.843338217795399C13.628439514736057,5.843338217795399,13.798884514736056,5.770638217795398,13.989197514736055,5.631698217795398C14.186227514736057,5.485958217795398,14.382947514736056,5.307438217795398,14.586397514736056,5.082378217795398C14.789837514736057,4.857318217795398,14.980147514736057,4.612548217795398,15.150597514736056,4.360998217795398C15.327767514736056,4.102978217795398,15.465537514736056,3.864668217795398,15.577347514736056,3.633151217795398C15.682117514736056,3.408093217795398,15.734657514736057,3.222779217795398,15.734657514736057,3.077210217795398C15.734657514736057,2.918393217795398,15.662567514736056,2.838904217795398,15.511667514736057,2.838904217795398C15.387037514736056,2.838904217795398,15.229407514736057,2.911769217795398,15.045827514736057,3.0573382177953983C14.855517514736057,3.209531217795398,14.665207514736057,3.4014692177953982,14.461767514736056,3.633151217795398C14.265047514736056,3.864668217795398,14.074737514736057,4.109598217795398,13.897567514736057,4.367618217795398C13.720390514736057,4.625798217795398,13.575895514736056,4.870568217795398,13.470809514736056,5.102248217795398C13.359314514736056,5.333768217795399,13.306771514736056,5.512458217795398,13.306771514736056,5.644778217795398C13.306771514736056,5.7772582177953975,13.366042514736057,5.843338217795399,13.490673514736056,5.843338217795399Z" fill="#767676" fill-opacity="1" style="mix-blend-mode:passthrough"/></g><g><path d="M18.136229612392306,5.869841638205554C17.939191612392307,5.869841638205554,17.781882612392305,5.8300916382055545,17.670387612392307,5.737521638205554C17.565301012392307,5.644781638205554,17.512757612392306,5.512461638205554,17.512757612392306,5.353641638205554C17.512757612392306,5.333771638205555,17.512757612392306,5.307441638205555,17.519485722392307,5.2809416382055545C17.519485722392307,5.247821638205554,17.525893412392307,5.221321638205554,17.532621612392305,5.201451638205555C17.552165112392306,5.062511638205555,17.611116212392307,4.930181638205554,17.709795612392305,4.804491638205555C17.801425612392308,4.6720116382055545,17.919648612392308,4.559561638205555,18.057414612392307,4.4537316382055545C18.195180612392306,4.354371638205555,18.339674612392308,4.268421638205554,18.490576612392307,4.202181638205555C18.641477612392308,4.136101638205554,18.785657612392306,4.102981638205554,18.930147612392307,4.0963516382055545C18.923417612392306,4.076481638205554,18.923417612392306,4.0499916382055545,18.923417612392306,4.016871638205554C18.917007612392307,3.983911638205554,18.917007612392307,3.9507916382055543,18.917007612392307,3.911041638205554C18.917007612392307,3.7853466382055543,18.956417612392308,3.6594886382055543,19.028507612392307,3.533791638205554C19.100597612392306,3.4014706382055544,19.199267612392305,3.2823986382055543,19.323897612392308,3.176412638205554C19.441807612392306,3.0705886382055545,19.586297612392308,2.9780126382055543,19.737197612392308,2.9117717382055543C19.894507612392307,2.8455306382055543,20.052137612392308,2.8125716382055543,20.209447612392307,2.8125716382055543L20.268717612392308,2.8125716382055543C20.294997612392308,2.8125716382055543,20.314537612392307,2.8125716382055543,20.327667612392307,2.8191957482055545C20.432757612392308,2.8322824382055543,20.524387612392307,2.865402938205554,20.609937612392308,2.9117717382055543C20.688427612392307,2.9647646382055544,20.727837612392307,3.0374686382055542,20.727837612392307,3.1235816382055543C20.727837612392307,3.1434536382055542,20.727837612392307,3.1697886382055542,20.714697612392307,3.202909638205554C20.675607612392305,3.335229638205554,20.596797612392308,3.4544636382055542,20.478577612392307,3.560288638205554C20.360347612392307,3.666112638205554,20.216177612392308,3.7456016382055544,20.052137612392308,3.7919706382055542C20.039007612392307,3.798594638205554,20.025867612392307,3.798594638205554,20.012737612392307,3.805218638205554C19.999597612392307,3.805218638205554,19.986457612392307,3.805218638205554,19.980057612392308,3.805218638205554C19.966917612392308,3.805218638205554,19.960187612392307,3.798594638205554,19.960187612392307,3.7919706382055542C19.960187612392307,3.772097638205554,19.986457612392307,3.7456016382055544,20.039007612392307,3.7257296382055545C20.163637612392307,3.666112638205554,20.275127612392307,3.5867846382055544,20.373487612392307,3.487584638205554C20.465437612392307,3.3948466382055544,20.524387612392307,3.2890226382055543,20.550657612392307,3.176412638205554C20.563797612392307,3.1169576382055544,20.550657612392307,3.0639646382055545,20.511577612392305,3.017595638205554C20.478577612392307,2.9647646382055544,20.399757612392307,2.9382686382055545,20.275127612392307,2.9382686382055545C20.170367612392305,2.9382686382055545,20.045407612392307,2.9780126382055543,19.914377612392308,3.044092638205554C19.783017612392307,3.1103336382055544,19.645247612392307,3.209533638205554,19.501077612392308,3.3418546382055543C19.415527612392307,3.4147196382055545,19.337037612392308,3.513919638205554,19.271357612392308,3.6265296382055543C19.199267612392305,3.7456016382055544,19.139997612392307,3.8646716382055546,19.087457612392306,3.9903716382055543C19.087457612392306,3.9969916382055546,19.087457612392306,3.9969916382055546,19.081047612392307,4.010241638205555C19.074317612392306,4.016871638205554,19.074317612392306,4.023491638205554,19.074317612392306,4.030111638205554C19.067917612392307,4.0499916382055545,19.061187612392306,4.069861638205555,19.061187612392306,4.089731638205555C19.179407612392307,4.083111638205555,19.277767612392307,4.102981638205554,19.356577612392307,4.155811638205554C19.402397612392306,4.1823116382055545,19.415527612392307,4.195551638205554,19.409127612392307,4.202181638205555C19.395987612392307,4.241921638205554,19.350177612392308,4.261801638205554,19.271357612392308,4.261801638205554C19.166267612392307,4.261801638205554,19.087457612392306,4.241921638205554,19.028507612392307,4.215431638205555C18.975957612392307,4.188931638205554,18.943287612392307,4.155811638205554,18.936557612392306,4.109601638205554C18.772517612392306,4.142721638205554,18.608477612392306,4.215431638205555,18.444441612392307,4.341121638205554C18.287131612392308,4.460361638205555,18.149365612392305,4.605931638205554,18.044278612392308,4.777991638205554C17.932784612392307,4.9434316382055545,17.860697612392308,5.115501638205554,17.834425612392305,5.2809416382055545C17.821289612392306,5.347021638205554,17.814561612392307,5.400011638205554,17.814561612392307,5.453001638205555C17.814561612392307,5.552201638205554,17.840833612392306,5.631691638205554,17.899784612392306,5.691151638205554C17.952327612392306,5.757391638205554,18.051006612392307,5.783891638205555,18.201908612392305,5.783891638205555C18.326538612392305,5.783891638205555,18.451169612392306,5.757391638205554,18.588937612392307,5.6977716382055545C18.719977612392306,5.6383216382055545,18.844927612392308,5.558831638205554,18.962827612392307,5.466251638205554C19.087457612392306,5.366891638205555,19.192547612392307,5.2610716382055545,19.290897612392307,5.141991638205554C19.382857612392307,5.022761638205554,19.448527612392308,4.910311638205554,19.494347612392307,4.7912416382055545L19.474807612392308,4.7912416382055545L19.284497612392308,4.744871638205554L18.917007612392307,4.678631638205554Q18.897147612392306,4.685251638205554,18.858057612392308,4.705131638205554C18.818647612392308,4.725001638205555,18.766107612392307,4.744871638205554,18.713567612392307,4.764741638205554C18.661017612392307,4.784621638205555,18.602067612392307,4.7912416382055545,18.549527612392307,4.7912416382055545C18.477440612392307,4.7912416382055545,18.444441612392307,4.777991638205554,18.444441612392307,4.744871638205554C18.444441612392307,4.711751638205555,18.470712612392305,4.678631638205554,18.516847612392308,4.652131638205555C18.569067612392306,4.619171638205554,18.628347612392307,4.599301638205555,18.707157612392308,4.599301638205555L18.785657612392306,4.599301638205555C18.811927612392306,4.599301638205555,18.838197612392307,4.605931638205554,18.871197612392308,4.612551638205554L18.989097612392307,4.519811638205555C19.074317612392306,4.473611638205554,19.159867612392308,4.4338616382055545,19.245087612392307,4.400741638205554C19.337037612392308,4.367621638205554,19.428667612392307,4.354371638205555,19.520617612392307,4.354371638205555C19.618977612392307,4.354371638205555,19.691387612392305,4.380871638205554,19.737197612392308,4.420611638205554C19.783017612392307,4.460361638205555,19.802877612392308,4.513191638205554,19.802877612392308,4.572811638205554C19.802877612392308,4.639051638205554,19.789747612392308,4.698501638205554,19.763467612392308,4.758121638205554L19.743607612392307,4.758121638205554C19.763467612392308,4.758121638205554,19.789747612392308,4.764741638205554,19.809287612392307,4.764741638205554L19.881377612392306,4.764741638205554C20.012737612392307,4.764741638205554,20.150497612392307,4.744871638205554,20.288267612392307,4.698501638205554C20.426027612392307,4.658761638205554,20.544257612392308,4.599301638205555,20.642607612392307,4.513191638205554C20.740967612392307,4.427241638205555,20.787107612392305,4.327881638205554,20.787107612392305,4.195551638205554C20.787107612392305,4.162431638205554,20.780377612392307,4.129481638205554,20.767247612392307,4.089731638205555C20.754107612392307,4.0499916382055545,20.727837612392307,4.023491638205554,20.695157612392308,4.010241638205555C20.714697612392307,3.9969916382055546,20.740967612392307,3.9969916382055546,20.767247612392307,3.9969916382055546C20.832917612392308,3.9969916382055546,20.891877612392307,4.023491638205554,20.944417612392307,4.069861638205555C20.996957612392308,4.116231638205554,21.023227612392308,4.175681638205554,21.023227612392308,4.248551638205554C21.023227612392308,4.394121638205554,20.970687612392307,4.513191638205554,20.872327612392308,4.599301638205555C20.773967612392305,4.691881638205555,20.655747612392307,4.758121638205554,20.517977612392308,4.797861638205554C20.386627612392306,4.837451638205554,20.261997612392307,4.850701638205555,20.144087612392305,4.850701638205555C20.078407612392308,4.850701638205555,20.012737612392307,4.850701638205555,19.947057612392307,4.850701638205555C19.874967612392307,4.850701638205555,19.802877612392308,4.844071638205554,19.717337612392306,4.830821638205554L19.678247612392305,4.897061638205555C19.618977612392307,4.996261638205555,19.527347612392305,5.102251638205555,19.415527612392307,5.214701638205554C19.304037612392307,5.327151638205555,19.179407612392307,5.433131638205554,19.041637612392307,5.532331638205554C18.897147612392306,5.631691638205554,18.746247612392306,5.717651638205554,18.595347612392306,5.777261638205554C18.438033612392307,5.843341638205555,18.287131612392308,5.869841638205554,18.136229612392306,5.869841638205554ZM19.501077612392308,4.725001638205555L19.514207612392305,4.725001638205555L19.540167612392306,4.639051638205554C19.540167612392306,4.625801638205554,19.546887612392307,4.612551638205554,19.546887612392307,4.592681638205555C19.546887612392307,4.552931638205554,19.533757612392307,4.519811638205555,19.514207612392305,4.493321638205554C19.494347612392307,4.466981638205555,19.454937612392307,4.4537316382055545,19.402397612392306,4.4537316382055545L19.369717612392307,4.4537316382055545C19.356577612392307,4.4537316382055545,19.343447612392307,4.460361638205555,19.330307612392307,4.460361638205555C19.304037612392307,4.466981638205555,19.271357612392308,4.473611638205554,19.231947612392307,4.486691638205555C19.199267612392305,4.506561638205555,19.159867612392308,4.519811638205555,19.120457612392308,4.5396916382055545L19.048047612392306,4.5860516382055545C19.041637612392307,4.5860516382055545,19.028507612392307,4.592681638205555,19.015367612392307,4.599301638205555C19.002237612392307,4.612551638205554,18.989097612392307,4.619171638205554,18.982687612392308,4.625801638205554L18.969557612392308,4.625801638205554L19.113727612392307,4.658761638205554C19.146727612392308,4.658761638205554,19.186137612392308,4.665381638205554,19.218817612392307,4.678631638205554C19.258227612392307,4.685251638205554,19.297627612392308,4.691881638205555,19.330307612392307,4.691881638205555L19.501077612392308,4.725001638205555Z" fill="#B9B9B9" fill-opacity="1" style="mix-blend-mode:passthrough"/></g><g><path d="M22.217365178017307,6.293534117453601C22.158414078017305,6.247164117453601,22.132142378017306,6.174294117453601,22.132142378017306,6.081724117453601C22.132142378017306,5.988984117453601,22.164821778017306,5.896404117453601,22.224093278017307,5.797204117453601C22.289772378017307,5.704474117453601,22.401267378017305,5.631764117453601,22.565304378017306,5.5853941174536015C22.650527378017305,5.558904117453602,22.762022378017306,5.545654117453601,22.899788378017305,5.545654117453601C23.129505378017306,5.545654117453601,23.418172378017307,5.578774117453602,23.766112378017308,5.644854117453601C24.120462378017308,5.711094117453602,24.560032378017308,5.783964117453602,25.084822378017307,5.856664117453601C25.203042378017308,5.869914117453601,25.320952378017306,5.883164117453601,25.445582378017306,5.896404117453601C25.570532378017305,5.909654117453601,25.701572378017307,5.916284117453602,25.839332378017307,5.916284117453602C25.924872378017305,5.916284117453602,26.010102378017308,5.909654117453601,26.095322378017308,5.903034117453601C26.180542378017307,5.896404117453601,26.265772378017306,5.889784117453601,26.351312378017305,5.876534117453601C26.581032378017305,5.836794117453601,26.85656237801731,5.757464117453601,27.17150237801731,5.638394117453601C27.48644237801731,5.519154117453601,27.80138237801731,5.3338441174536015,28.11632237801731,5.095704117453601C28.43126237801731,4.850774117453601,28.706792378017305,4.533134117453601,28.956052378017304,4.142794117453601C29.19890237801731,3.7456741174536012,29.369672378017306,3.255974117453601,29.461302378017308,2.6669141174536013C29.474442378017308,2.5743341174536014,29.481162378017306,2.488384117453601,29.494302378017306,2.408894117453601C29.500712378017305,2.322944117453601,29.500712378017305,2.2434541174536013,29.500712378017305,2.1641241174536012C29.500712378017305,1.5883141174536013,29.323532378017305,1.1516041174536011,28.969192378017304,0.8536851174536012C28.719932378017305,1.0853641174536013,28.477072378017304,1.3500041174536013,28.234222378017307,1.6545541174536011C27.998102378017308,1.9523141174536012,27.761972378017305,2.2633241174536014,27.538982378017305,2.587584117453601C27.30926237801731,2.905224117453601,27.099092378017307,3.209604117453601,26.895972378017305,3.500744117453601C26.738342378017308,3.7191741174536013,26.574302378017308,3.950864117453601,26.403852378017305,4.195624117453601C26.233092378017307,4.440554117453601,26.055912378017307,4.672084117453601,25.872332378017305,4.883894117453601C25.688432378017307,5.102324117453601,25.498122378017307,5.274384117453601,25.301402378017308,5.413334117453601C25.104692378017305,5.545654117453601,24.901242378017308,5.625144117453601,24.697792378017308,5.638394117453601C24.855102378017307,5.525784117453601,25.019142378017307,5.366964117453601,25.183182378017307,5.161774117453601C25.347222378017307,4.9633741174536015,25.511262378017307,4.738324117453601,25.675292378017307,4.493394117453601C25.839332378017307,4.248624117453601,25.996962378017308,4.003694117453601,26.147862378017308,3.758924117453601C26.305172378017307,3.5139941174536014,26.449672378017304,3.2957141174536013,26.587432378017304,3.103784117453601C26.895972378017305,2.6538241174536013,27.237182378017305,2.2169541174536014,27.604342378017307,1.7868741174536011C27.978552378017305,1.3632541174536013,28.352442378017308,0.9994151174536012,28.73306237801731,0.6948681174536012C28.424532378017307,0.5228021174536012,28.037502378017308,0.4368501174536012,27.565252378017306,0.4368501174536012C27.125362378017307,0.4368501174536012,26.70566237801731,0.5030921174536012,26.305172378017307,0.6420361174536012C25.911742378017305,0.7743571174536013,25.550662378017307,0.9530461174536012,25.222592378017307,1.1714841174536013C24.894512378017307,1.3897541174536012,24.612572378017305,1.6346841174536013,24.376132378017306,1.8993241174536013C24.140002378017307,2.1641241174536012,23.956422378017308,2.435394117453601,23.825062378017307,2.700034117453601C23.693702378017306,2.9648341174536013,23.628342378017308,3.209604117453601,23.628342378017308,3.4346641174536012C23.628342378017308,3.646474117453601,23.693702378017306,3.8250041174536014,23.831472378017306,3.9707341174536013C23.962832378017307,4.116304117453601,24.179412378017307,4.2022541174536014,24.474492378017306,4.228744117453601C24.520622378017308,4.228744117453601,24.540162378017307,4.235374117453601,24.540162378017307,4.255244117453601C24.540162378017307,4.281744117453601,24.513892378017307,4.2949941174536015,24.454942378017307,4.2949941174536015C24.067912378017308,4.261874117453601,23.779252378017308,4.149424117453601,23.595342378017307,3.957484117453601C23.411762378017308,3.7655441174536013,23.319812378017307,3.5338641174536014,23.319812378017307,3.255974117453601C23.319812378017307,2.9582141174536014,23.418172378017307,2.640574117453601,23.615212378017308,2.303074117453601C23.805202378017306,1.9655641174536012,24.087462378017307,1.6413041174536012,24.454942378017307,1.3369241174536013C24.822422378017308,1.0323741174536012,25.262002378017307,0.7876051174536012,25.780382378017308,0.5956681174536013C26.298772378017304,0.4037301174536012,26.882832378017305,0.3045301174536012,27.532252378017304,0.3045301174536012C27.794652378017307,0.3111541174536012,28.044232378017306,0.3376501174536012,28.273632378017307,0.3706091174536012C28.510072378017306,0.41035411745360123,28.726332378017307,0.4699711174536012,28.923372378017305,0.5559231174536012C29.166222378017306,0.3838581174536012,29.395622378017308,0.2449131174536012,29.632072378017305,0.14571311745360122C29.85506237801731,0.04635131745360121,30.078042378017308,0.0001441174536012113,30.288222378017306,0.0001441174536012113C30.406122378017308,0.0001441174536012113,30.52434237801731,0.019854917453601212,30.642562378017306,0.05297541745360121C30.760472378017305,0.09272011745360122,30.858832378017304,0.1523371174536012,30.944372378017306,0.2382891174536012C31.022862378017308,0.3244021174536012,31.062272378017305,0.4500991174536012,31.062272378017305,0.6155401174536013C31.029592378017306,0.4832191174536012,30.93764237801731,0.3772341174536012,30.78674237801731,0.2912821174536012C30.648972378017305,0.21179211745360121,30.491662378017306,0.16558511745360122,30.340762378017306,0.16558511745360122C30.150452378017306,0.16558511745360122,29.953412378017305,0.21179211745360121,29.756702378017305,0.3045301174536012C29.559662378017308,0.3971061174536012,29.36294237801731,0.5228021174536012,29.172632378017305,0.6816191174536013C29.448162378017308,0.8405981174536012,29.658342378017306,1.0588741174536012,29.809242378017306,1.3302941174536012C29.966552378017305,1.6015641174536013,30.045362378017305,1.9390741174536013,30.045362378017305,2.349284117453601C30.045362378017305,2.772894117453601,29.960142378017306,3.1764841174536014,29.802512378017305,3.5603641174536014C29.638472378017305,3.9442341174536013,29.428622378017305,4.288364117453601,29.172632378017305,4.592754117453601C28.91024237801731,4.897134117453601,28.634702378017305,5.155154117453601,28.346032378017306,5.360344117453601C28.050642378017308,5.565524117453601,27.781512378017307,5.704474117453601,27.525852378017305,5.777334117453601C27.269862378017308,5.856664117453601,27.00746237801731,5.9229041174536015,26.745062378017305,5.975734117453602C26.482352378017307,6.0287341174536015,26.21354237801731,6.0552241174536015,25.937692378017307,6.0552241174536015C25.675292378017307,6.0552241174536015,25.380222378017308,6.035354117453601,25.058552378017307,5.995604117453601C24.737202378017308,5.962654117453601,24.402402378017307,5.929534117453601,24.067912378017308,5.903034117453601C23.989102378017307,5.896404117453601,23.910282378017307,5.889784117453601,23.831472378017306,5.889784117453601C23.752972378017308,5.883164117453601,23.667432378017306,5.883164117453601,23.575802378017308,5.883164117453601C23.293542378017307,5.883164117453601,23.024418378017305,5.909654117453601,22.768750378017305,5.969274117453601C22.506033378017307,6.022104117453601,22.322452378017307,6.134714117453601,22.217365178017307,6.293534117453601Z" fill="#767676" fill-opacity="1" style="mix-blend-mode:passthrough"/></g><g><path d="M32.2236713233298,2.2500064948950076C32.092631323329805,2.2500064948950076,32.026951323329804,2.1970134948950073,32.026951323329804,2.0911894948950076C32.026951323329804,2.0580684948950076,32.04008132332981,2.0249484948950074,32.0596313233298,1.9853654948950075C32.092631323329805,1.9058754948950074,32.15158132332981,1.8331724948950074,32.230391323329805,1.7735550948950074C32.31562132332981,1.7073139948950073,32.394431323329805,1.6741934948950075,32.473251323329805,1.6741934948950075C32.59788132332981,1.6741934948950075,32.656831323329804,1.7271863948950075,32.656831323329804,1.8331724948950074C32.656831323329804,1.9323724948950074,32.611011323329805,2.0249484948950074,32.51906132332981,2.1110614948950075C32.427111323329804,2.1970134948950073,32.328751323329804,2.243382494895007,32.2236713233298,2.2500064948950076ZM30.091175323329807,6.002163494895007C29.914001323329806,6.002163494895007,29.789371323329807,5.955953494895008,29.710555323329807,5.856593494895008C29.638468823329806,5.764013494895007,29.599061323329806,5.644783494895007,29.599061323329806,5.499213494895008C29.599061323329806,5.307433494895007,29.658332823329808,5.095623494895007,29.769827323329807,4.877193494895007C29.887729323329808,4.652133494895008,30.025816323329806,4.433863494895007,30.202669323329808,4.208803494895007C30.373435323329808,3.9903734948950076,30.543881323329806,3.7787234948950075,30.721051323329807,3.5867834948950073C30.898231323329806,3.3882234948950076,31.055861323329808,3.229403494895007,31.186901323329806,3.1037134948950076C31.305121323329807,2.9780134948950074,31.436481323329808,2.8852734948950074,31.567511323329807,2.8258234948950074C31.698871323329808,2.7662034948950076,31.810371323329807,2.7264534948950074,31.908731323329807,2.6999634948950075Q32.00068132332981,2.6800934948950075,32.0464913233298,2.6668404948950073C31.902321323329808,2.8322834948950075,31.705281323329807,3.0705834948950077,31.462751323329805,3.3749734948950074C31.213171323329806,3.6793634948950076,30.963911323329807,4.003613494895007,30.721051323329807,4.347753494895008C30.701511323329807,4.3742434948950075,30.655691323329805,4.440483494895007,30.583288323329807,4.546313494895007C30.511201323329807,4.652133494895008,30.432386323329805,4.771373494895007,30.340756323329806,4.910313494895007C30.255212323329808,5.049253494895007,30.176718323329805,5.188203494895007,30.117446323329805,5.320523494895007C30.051767323329805,5.4530034948950075,30.019088323329807,5.5588334948950076,30.019088323329807,5.638323494895007C30.019088323329807,5.764013494895007,30.091175323329807,5.8234734948950075,30.215805323329807,5.8234734948950075C30.320892323329808,5.8234734948950075,30.425978323329808,5.790513494895007,30.537473323329806,5.7176434948950074C30.655691323329805,5.644783494895007,30.767191323329808,5.552203494895007,30.891821323329808,5.446383494895008C31.003311323329807,5.340393494895007,31.114811323329807,5.234573494895008,31.206761323329808,5.135373494895008C31.305121323329807,5.029383494895008,31.377201323329807,4.950053494895007,31.429751323329807,4.883813494895008C31.456021323329807,4.883813494895008,31.469161323329807,4.903693494895007,31.469161323329807,4.943433494895007C31.469161323329807,5.002893494895007,31.456021323329807,5.049253494895007,31.429751323329807,5.082383494895007C31.180491323329807,5.373513494895008,30.957501323329808,5.598573494895008,30.754051323329808,5.757393494895007C30.557016323329805,5.922833494895007,30.334027323329806,6.002163494895007,30.091175323329807,6.002163494895007Z" fill="#767676" fill-opacity="1" style="mix-blend-mode:passthrough"/></g><g><path d="M32.17780937801731,6.055150665915516C31.876005378017307,6.055150665915516,31.659424378017306,5.988910665915515,31.534794378017306,5.856590665915515C31.416571578017308,5.724270665915515,31.350892378017306,5.545580665915516,31.350892378017306,5.320520665915515C31.350892378017306,5.102250665915515,31.410163878017308,4.8705706659155155,31.534794378017306,4.6258006659155155C31.653016378017305,4.387490665915515,31.803918378017308,4.155810665915515,31.987500378017305,3.937540665915515C32.09899437801731,3.805220665915515,32.23676037801731,3.6661116659155155,32.4008023780173,3.5205426659155155C32.56483237801731,3.3749736659155154,32.74201237801731,3.236029665915515,32.932322378017304,3.1103326659155153C33.12263237801731,2.9846366659155152,33.312942378017304,2.878650665915515,33.50325237801731,2.7926986659155153C33.68683237801731,2.7132094659155155,33.85087237801731,2.6668406659155153,33.995362378017305,2.6668406659155153C34.07417237801731,2.6668406659155153,34.146262378017305,2.686712965915515,34.211942378017305,2.726457665915515C34.277622378017305,2.7595781659155154,34.310302378017305,2.838905665915515,34.310302378017305,2.9581396659155152C34.310302378017305,3.123580665915515,34.231482378017304,3.275773665915515,34.07417237801731,3.4279666659155152C33.916542378017304,3.5735356659155153,33.73937237801731,3.712480665915515,33.54265237801731,3.838180665915515C33.3193423780173,3.9839106659155155,33.08995237801731,4.109600665915515,32.84709237801731,4.208800665915515C32.604242378017304,4.308160665915516,32.39439237801731,4.380870665915515,32.21721737801731,4.433860665915516C32.11885837801731,4.592680665915515,32.04004337801731,4.758120665915515,31.981092378017305,4.923560665915515C31.921821378017306,5.089000665915515,31.889141378017307,5.2478206659155155,31.889141378017307,5.406640665915515C31.889141378017307,5.578700665915515,31.934956378017308,5.697770665915515,32.01377237801731,5.757390665915516C32.09899437801731,5.823470665915515,32.190945378017304,5.856590665915515,32.30244037801731,5.856590665915515C32.505882378017304,5.856590665915515,32.69619237801731,5.803760665915515,32.86023237801731,5.711020665915515C33.0306823780173,5.611820665915515,33.1815823780173,5.4925906659155155,33.32607237801731,5.340400665915515C33.47057237801731,5.188200665915515,33.60833237801731,5.036010665915516,33.73937237801731,4.883820665915515C33.765642378017304,4.883820665915515,33.778782378017304,4.903690665915516,33.778782378017304,4.943430665915516C33.778782378017304,5.0028906659155155,33.765642378017304,5.049260665915515,33.73937237801731,5.082380665915515C33.60833237801731,5.234570665915515,33.47057237801731,5.386760665915515,33.312942378017304,5.538960665915515C33.16203237801731,5.691150665915515,32.99127237801731,5.810220665915516,32.80769237801731,5.909580665915515C32.62411237801731,6.002160665915515,32.41393237801731,6.055150665915516,32.17780937801731,6.055150665915516ZM32.3351193780173,4.294920665915515C32.505882378017304,4.235300665915515,32.70933237801731,4.155810665915515,32.93905237801731,4.049990665915516C33.17517237801731,3.9441606659155153,33.378622378017305,3.8249306659155153,33.55579237801731,3.699230665915515C33.595202378017305,3.6727406659155153,33.6605623780173,3.619904665915515,33.75923237801731,3.5337916659155155C33.85759237801731,3.4544636659155152,33.949542378017306,3.3617256659155155,34.03477237801731,3.2559016659155153C34.11999237801731,3.156701665915515,34.16581237801731,3.0639636659155154,34.16581237801731,2.9846366659155152C34.16581237801731,2.878650665915515,34.113582378017306,2.8258196659155153,34.008502378017305,2.8258196659155153C33.897002378017305,2.8258196659155153,33.77237237801731,2.878650665915515,33.627882378017304,2.9780126659155153C33.49011237801731,3.0772126659155155,33.37189237801731,3.1631646659155153,33.286662378017304,3.236029665915515C33.129362378017305,3.381598665915515,32.965322378017305,3.540415665915515,32.79455237801731,3.7191006659155152C32.62411237801731,3.8977906659155153,32.473202378017305,4.089730665915515,32.3351193780173,4.294920665915515Z" fill="#767676" fill-opacity="1" style="mix-blend-mode:passthrough"/></g><g><path d="M32.46009838192356,8.424318217795399C32.263061381923556,8.424318217795399,32.13202338192356,8.411068217795398,32.05961538192356,8.377948217795398C31.987528881923556,8.351458217795397,31.948121381923556,8.324958217795398,31.948121381923556,8.305088217795397C31.948121381923556,8.278748217795398,31.974393081923555,8.265508217795398,32.02020828192356,8.265508217795398C32.053208381923554,8.265508217795398,32.085887381923555,8.265508217795398,32.11888738192356,8.272128217795398C32.15156638192356,8.272128217795398,32.17783838192356,8.278748217795398,32.204110381923556,8.278748217795398C32.44023538192356,8.278748217795398,32.676359381923554,8.199258217795398,32.912805381923555,8.060318217795398C33.14893138192355,7.908128217795398,33.378651381923554,7.716188217795398,33.60163138192355,7.477878217795398C33.824621381923556,7.233108217795398,34.04120138192356,6.968308217795398,34.24465138192355,6.677168217795398C34.44810138192356,6.386038217795399,34.631681381923556,6.101518217795398,34.79571138192355,5.816848217795398C34.854991381923554,5.711018217795398,34.927071381923554,5.572078217795398,35.01902138192356,5.400008217795398C35.110971381923555,5.234568217795398,35.21574138192356,5.049258217795398,35.32724138192356,4.850698217795398C35.20261138192355,4.996268217795398,35.08470138192356,5.128748217795398,34.97962138192356,5.241198217795398C34.87453138192355,5.353638217795398,34.79571138192355,5.433128217795398,34.743491381923555,5.485958217795398C34.59900138192356,5.6184482177953985,34.461231381923554,5.7308982177953975,34.32987138192355,5.830098217795398C34.198831381923554,5.922828217795399,34.061071381923554,5.982288217795398,33.91657138192355,5.9955382177953975C33.673721381923556,6.008778217795398,33.55582138192356,5.869838217795398,33.55582138192356,5.578698217795398C33.55582138192356,5.419888217795398,33.60163138192355,5.227948217795398,33.693591381923554,5.002888217795398C33.78554138192356,4.784618217795398,33.92330138192356,4.552928217795398,34.10688138192356,4.308168217795398C34.23824138192356,4.142718217795398,34.39555138192355,3.964038217795398,34.58586138192356,3.7720982177953983C34.776171381923554,3.586782217795398,34.98602138192356,3.408093217795398,35.21574138192356,3.236027217795398C35.439051381923555,3.0639622177953982,35.66845138192355,2.918393217795398,35.904891381923555,2.812569217795398C36.14102138192356,2.699959517795398,36.370731381923555,2.647128217795398,36.59372138192356,2.647128217795398C36.69208138192356,2.647128217795398,36.76417138192355,2.666839017795398,36.80358138192356,2.693335417795398C36.84298138192356,2.726455917795398,36.86926138192356,2.7529522177953982,36.882391381923554,2.786073217795398C36.88912138192356,2.812569217795398,36.88912138192356,2.838904217795398,36.882391381923554,2.858776217795398C37.07270138192356,2.733080117795398,37.249871381923555,2.666839017795398,37.413911381923555,2.666839017795398C37.459731381923554,2.666839017795398,37.48600138192356,2.6734631177953982,37.49914138192356,2.6867113177953983C37.22360138192356,2.858776217795398,36.980751381923554,3.0838352177953983,36.77090138192356,3.348476217795398C36.55432138192356,3.613279217795398,36.35760138192356,3.917668217795398,36.17370138192356,4.248548217795398C35.99012138192356,4.579428217795398,35.80621138192355,4.916938217795398,35.62904138192356,5.267688217795397C35.44546138192356,5.6184482177953985,35.255151381923554,5.969198217795398,35.058431381923555,6.313168217795399C34.854991381923554,6.657298217795398,34.631681381923556,6.9749382177953985,34.38242138192356,7.2662282177953985C34.08734138192356,7.610358217795398,33.76567138192355,7.888248217795398,33.42446138192356,8.100058217795398C33.08325138192355,8.318338217795398,32.76190338192356,8.424318217795399,32.46009838192356,8.424318217795399ZM34.146291381923554,5.684528217795398C34.19211138192355,5.684528217795398,34.25138138192356,5.664648217795398,34.32987138192355,5.6184482177953985C34.40869138192355,5.578698217795398,34.513771381923554,5.505838217795398,34.63840138192356,5.400008217795398C34.84826138192356,5.214698217795398,35.058431381923555,4.983018217795398,35.275011381923555,4.718378217795398C35.49127138192355,4.447108217795398,35.701451381923555,4.1823082177953985,35.904891381923555,3.917668217795398C36.055791381923555,3.705858217795398,36.21310138192356,3.507293217795398,36.370731381923555,3.315517217795398C36.534771381923555,3.123579217795398,36.698811381923555,2.971386217795398,36.86926138192356,2.865400217795398C36.85612138192356,2.865400217795398,36.849711381923555,2.865400217795398,36.849711381923555,2.858776217795398C36.82344138192356,2.845528217795398,36.77090138192356,2.838904217795398,36.69208138192356,2.838904217795398C36.45596138192356,2.838904217795398,36.17370138192356,2.951514217795398,35.852351381923555,3.176411217795398C35.53068138192356,3.408093217795398,35.209331381923555,3.705858217795398,34.894391381923555,4.069858217795398C34.67108138192356,4.321248217795398,34.48750138192356,4.5661782177953985,34.34301138192356,4.804488217795399C34.198831381923554,5.049258217795398,34.10048138192356,5.247818217795398,34.05434138192356,5.406638217795399C34.04120138192356,5.459628217795398,34.03480138192356,5.505838217795398,34.03480138192356,5.5455782177953985C34.03480138192356,5.638318217795398,34.07420138192356,5.684528217795398,34.146291381923554,5.684528217795398Z" fill="#767676" fill-opacity="1" style="mix-blend-mode:passthrough"/></g><g><path d="M36.842984667079804,6.035278217795398C36.652675667079805,6.035278217795398,36.51490866707981,5.982288217795398,36.43609366707981,5.889708217795398C36.35087116707981,5.790508217795399,36.311463667079806,5.671278217795399,36.311463667079806,5.525708217795398C36.311463667079806,5.340398217795398,36.364007067079804,5.122118217795398,36.475501667079804,4.870568217795398C36.58058866707981,4.619178217795398,36.7250826670798,4.367618217795398,36.90866366707981,4.109598217795398C37.09224566707981,3.851428217795398,37.302418667079806,3.606654217795398,37.532133667079805,3.388220217795398C37.7615336670798,3.163162217795398,37.9912536670798,2.991259217795398,38.23410366707981,2.852152217795398C38.47022366707981,2.713207717795398,38.706673667079805,2.647128217795398,38.92966366707981,2.647128217795398C39.09370366707981,2.647128217795398,39.21192366707981,2.693335417795398,39.284013667079805,2.779449217795398C39.356093667079804,2.865400217795398,39.3887736670798,2.978010217795398,39.3887736670798,3.116955217795398C39.3887736670798,3.302269217795398,39.336553667079805,3.5205412177953983,39.23146366707981,3.7720982177953983C39.126373667079804,4.030108217795398,38.98220366707981,4.288288217795398,38.805033667079805,4.546308217795398C38.6211336670798,4.8111082177953985,38.424413667079804,5.055878217795398,38.20142366707981,5.2809382177953985C37.98484366707981,5.505838217795398,37.75512366707981,5.684528217795398,37.51900366707981,5.823468217795398C37.28255466707981,5.962578217795398,37.05956566707981,6.035278217795398,36.842984667079804,6.035278217795398ZM36.961207667079805,5.843338217795399C37.098973667079804,5.843338217795399,37.26301166707981,5.770638217795398,37.45972366707981,5.631698217795398C37.6500336670798,5.485958217795398,37.847073667079805,5.307438217795398,38.05052366707981,5.082378217795398C38.25364366707981,4.857318217795398,38.4439536670798,4.612548217795398,38.61472366707981,4.360998217795398C38.791893667079805,4.102978217795398,38.92966366707981,3.864668217795398,39.041153667079804,3.633151217795398C39.14624366707981,3.408093217795398,39.205193667079804,3.222779217795398,39.205193667079804,3.077210217795398C39.205193667079804,2.918393217795398,39.126373667079804,2.838904217795398,38.975473667079804,2.838904217795398C38.85084366707981,2.838904217795398,38.693533667079805,2.911769217795398,38.509633667079804,3.0573382177953983C38.31932366707981,3.209531217795398,38.1290136670798,3.4014692177953982,37.9255736670798,3.633151217795398C37.728853667079804,3.864668217795398,37.53854366707981,4.109598217795398,37.3613736670798,4.367618217795398C37.1841966670798,4.625798217795398,37.046429667079806,4.870568217795398,36.934935667079806,5.102248217795398C36.82984866707981,5.333768217795399,36.77089766707981,5.512458217795398,36.77089766707981,5.644778217795398C36.77089766707981,5.7772582177953975,36.836576667079804,5.843338217795399,36.961207667079805,5.843338217795399Z" fill="#767676" fill-opacity="1" style="mix-blend-mode:passthrough"/></g></g></g></svg>