<?xml version="1.0" encoding="UTF-8" standalone="no"?>
<!DOCTYPE svg PUBLIC "-//W3C//DTD SVG 1.1//EN" "http://www.w3.org/Graphics/SVG/1.1/DTD/svg11.dtd">
<svg width="100%" height="100%" viewBox="0 0 120 120" version="1.1" xmlns="http://www.w3.org/2000/svg" xmlns:xlink="http://www.w3.org/1999/xlink" xml:space="preserve" xmlns:serif="http://www.serif.com/" style="fill-rule:evenodd;clip-rule:evenodd;stroke-linejoin:round;stroke-miterlimit:2;">
    <g transform="matrix(1,0,0,1,-925.988,0)">
        <g id="baile" transform="matrix(1,0,0,1,925.988,0)">
            <rect x="0" y="0" width="120" height="120" style="fill:none;"/>
            <g transform="matrix(1.08518,0,0,1.08518,-1005.22,-6.80252)">
                <path d="M968.97,91.3C969.066,93.899 968.279,96.921 966.61,99.943C964.4,104.23 958.717,108.516 953.981,111.374C949.245,108.516 943.562,104.23 941.352,99.943C938.195,94.228 938.195,88.513 941.352,85.655C944.509,82.798 950.824,82.798 953.981,88.513C957.138,82.798 963.453,82.798 966.61,85.655C966.735,85.769 966.855,85.886 966.97,86.008L966.97,37.401L1024.22,11.745L1024.22,81.091C1024.33,83.7 1023.55,86.739 1021.87,89.777C1019.66,94.063 1013.97,98.35 1009.24,101.207C1004.5,98.35 998.819,94.063 996.609,89.777C993.452,84.062 993.452,78.347 996.609,75.489C999.766,72.632 1006.08,72.632 1009.24,78.347C1012.39,72.632 1018.71,72.632 1021.87,75.489C1021.99,75.602 1022.11,75.719 1022.23,75.84L1022.23,36.496L968.97,60.359L968.97,91.3ZM966.97,91.335C966.901,89.621 966.37,88.136 965.268,87.138C962.873,84.971 958.126,85.146 955.732,89.48L953.981,92.649L952.23,89.48C949.836,85.146 945.089,84.971 942.694,87.138C941.508,88.212 940.984,89.849 940.984,91.728C940.984,93.936 941.709,96.452 943.117,99.001L943.13,99.027C945.041,102.732 949.775,106.381 953.981,109.024C958.187,106.381 962.921,102.732 964.845,99.001L964.859,98.976C966.253,96.452 966.978,93.936 966.978,91.728C966.978,91.644 966.977,91.561 966.975,91.479L966.97,91.479L966.97,91.335ZM1022.23,34.304L1022.23,14.833L968.97,38.696L968.97,58.168L1022.23,34.304ZM1022.23,81.13C1022.15,79.433 1021.62,77.963 1020.52,76.972C1018.13,74.805 1013.38,74.98 1010.99,79.314L1009.24,82.483L1007.49,79.314C1005.09,74.98 1000.35,74.805 997.951,76.972C996.765,78.046 996.241,79.683 996.241,81.562C996.241,83.77 996.965,86.286 998.373,88.835L998.387,88.861C1000.3,92.566 1005.03,96.215 1009.24,98.858C1013.44,96.215 1018.18,92.566 1020.1,88.835L1020.12,88.81C1021.5,86.311 1022.22,83.819 1022.23,81.626L1022.23,81.626L1022.23,81.13Z" style="fill:rgb(93,93,93);"/>
            </g>
        </g>
    </g>
</svg>
