<?xml version="1.0" encoding="UTF-8" standalone="no"?>
<!DOCTYPE svg PUBLIC "-//W3C//DTD SVG 1.1//EN" "http://www.w3.org/Graphics/SVG/1.1/DTD/svg11.dtd">
<svg width="100%" height="100%" viewBox="0 0 120 120" version="1.1" xmlns="http://www.w3.org/2000/svg" xmlns:xlink="http://www.w3.org/1999/xlink" xml:space="preserve" xmlns:serif="http://www.serif.com/" style="fill-rule:evenodd;clip-rule:evenodd;stroke-linejoin:round;stroke-miterlimit:2;">
    <g transform="matrix(1,0,0,1,-1058.27,0)">
        <g id="brindis" transform="matrix(1,0,0,1,1058.27,0)">
            <rect x="0" y="0" width="120" height="120" style="fill:none;"/>
            <g transform="matrix(1.34266,2.04992e-32,1.64346e-32,1.34266,-4522.77,-2627.56)">
                <path d="M3400,1988.19C3398.91,1975.22 3399.87,1962.3 3399.87,1962.3C3399.9,1961.91 3400.22,1961.61 3400.61,1961.61L3425.98,1961.61C3426.37,1961.61 3426.7,1961.91 3426.73,1962.3C3426.73,1962.3 3428.63,1987.81 3424.06,2003.12C3423.05,2006.48 3421.73,2009.36 3420.03,2011.41C3418.4,2013.37 3416.42,2014.58 3414.04,2014.79L3414.04,2033.39L3426.12,2040.33C3426.41,2040.5 3426.55,2040.84 3426.47,2041.17C3426.38,2041.49 3426.09,2041.72 3425.75,2041.72L3400.38,2041.72C3400.04,2041.72 3399.74,2041.49 3399.66,2041.17C3399.57,2040.84 3399.71,2040.5 3400.01,2040.33L3412.55,2033.12L3412.55,2014.79C3410.18,2014.58 3408.2,2013.37 3406.57,2011.41C3404.87,2009.36 3403.55,2006.48 3402.54,2003.12C3401.24,1998.75 3400.46,1993.56 3400.02,1988.36C3400.01,1988.32 3400,1988.27 3400,1988.21L3400,1988.19ZM3425.17,1987.47C3426.04,1976.6 3425.47,1965.87 3425.29,1963.1L3401.31,1963.1C3401.13,1965.87 3400.56,1976.6 3401.43,1987.47L3425.17,1987.47ZM3403.17,2040.23L3422.96,2040.23L3413.06,2034.54L3403.17,2040.23ZM3413.3,2013.33C3415.56,2013.33 3417.39,2012.25 3418.88,2010.46C3420.47,2008.54 3421.69,2005.84 3422.63,2002.69C3423.85,1998.61 3424.6,1993.81 3425.04,1988.96L3401.56,1988.96C3402,1993.81 3402.75,1998.61 3403.97,2002.69C3404.91,2005.84 3406.12,2008.54 3407.72,2010.46C3409.21,2012.25 3411.04,2013.33 3413.3,2013.33Z" style="fill:rgb(93,93,93);"/>
            </g>
        </g>
    </g>
</svg>
