<?xml version="1.0" encoding="UTF-8" standalone="no"?>
<!DOCTYPE svg PUBLIC "-//W3C//DTD SVG 1.1//EN" "http://www.w3.org/Graphics/SVG/1.1/DTD/svg11.dtd">
<svg width="100%" height="100%" viewBox="0 0 120 120" version="1.1" xmlns="http://www.w3.org/2000/svg" xmlns:xlink="http://www.w3.org/1999/xlink" xml:space="preserve" xmlns:serif="http://www.serif.com/" style="fill-rule:evenodd;clip-rule:evenodd;stroke-linejoin:round;stroke-miterlimit:2;">
    <g transform="matrix(1,0,0,1,-661.42,0)">
        <g id="cena-2" transform="matrix(1,0,0,1,661.42,0)">
            <rect x="0" y="0" width="120" height="120" style="fill:none;"/>
            <g transform="matrix(1.12972,0,0,1.12972,-746.898,-7.76544)">
                <path d="M752.342,92.049L764.245,92.049L764.245,97.667C764.245,99.411 763.552,101.083 762.318,102.317C761.085,103.55 759.413,104.243 757.668,104.243L670.821,104.243C669.077,104.243 667.404,103.55 666.171,102.317C664.937,101.083 664.245,99.411 664.245,97.667L664.245,92.049L676.147,92.049C676.008,90.726 675.937,89.383 675.937,88.023C675.937,68.908 689.967,53.045 708.282,50.178L705.199,46.59C704.415,45.678 704.234,44.393 704.736,43.301C705.238,42.208 706.33,41.508 707.532,41.508L720.957,41.508C722.159,41.508 723.251,42.208 723.753,43.301C724.255,44.393 724.074,45.678 723.29,46.59L720.208,50.178C738.522,53.045 752.552,68.908 752.552,88.023L752.552,88.065C752.55,89.41 752.479,90.74 752.342,92.049ZM678.159,92.049L750.331,92.049C750.475,90.74 750.55,89.41 750.552,88.063L750.552,88.023C750.552,69.478 736.618,54.162 718.658,51.981C715.716,51.699 712.774,51.669 709.832,51.981C691.871,54.162 677.937,69.478 677.937,88.023C677.937,89.384 678.012,90.727 678.159,92.049ZM717.826,49.881L721.774,45.287C722.048,44.967 722.111,44.518 721.935,44.135C721.76,43.753 721.378,43.508 720.957,43.508L707.532,43.508C707.112,43.508 706.729,43.753 706.554,44.135C706.378,44.518 706.441,44.967 706.716,45.287L710.663,49.881C711.842,49.771 713.037,49.715 714.245,49.715C715.452,49.715 716.647,49.771 717.826,49.881ZM762.474,93.82L666.015,93.82L666.015,97.667C666.015,98.941 666.521,100.164 667.423,101.065C668.324,101.966 669.546,102.472 670.821,102.472L757.668,102.472C758.943,102.472 760.165,101.966 761.067,101.065C761.968,100.164 762.474,98.941 762.474,97.667L762.474,93.82ZM693.544,24.652C693.958,24.287 694.59,24.326 694.956,24.74C695.321,25.153 695.282,25.786 694.868,26.151C694.049,26.875 693.568,27.583 693.354,28.299C693.112,29.112 693.222,29.92 693.482,30.727C693.787,31.673 694.298,32.616 694.814,33.562C696.588,36.815 698.258,40.079 694.913,43.424C694.523,43.814 693.889,43.814 693.499,43.424C693.109,43.033 693.109,42.4 693.499,42.009C696.043,39.465 694.408,36.994 693.058,34.519C691.831,32.27 690.762,29.997 691.437,27.728C691.74,26.712 692.381,25.679 693.544,24.652ZM733.968,24.652C734.382,24.287 735.014,24.326 735.379,24.74C735.745,25.153 735.706,25.786 735.292,26.151C734.473,26.875 733.991,27.583 733.778,28.299C733.536,29.112 733.645,29.92 733.906,30.727C734.211,31.673 734.722,32.616 735.238,33.562C737.012,36.815 738.681,40.079 735.337,43.424C734.947,43.814 734.313,43.814 733.923,43.424C733.533,43.033 733.533,42.4 733.923,42.009C736.467,39.465 734.832,36.994 733.482,34.519C732.255,32.27 731.185,29.997 731.861,27.728C732.164,26.712 732.805,25.679 733.968,24.652ZM713.756,15.731C714.17,15.366 714.802,15.405 715.168,15.819C715.533,16.232 715.494,16.865 715.08,17.23C714.261,17.954 713.779,18.662 713.566,19.378C713.324,20.191 713.433,20.998 713.694,21.805C713.999,22.752 714.51,23.695 715.026,24.641C716.8,27.894 718.47,31.158 715.125,34.503C714.735,34.893 714.101,34.893 713.711,34.503C713.321,34.112 713.321,33.479 713.711,33.088C716.255,30.544 714.62,28.073 713.27,25.598C712.043,23.349 710.973,21.076 711.649,18.807C711.952,17.791 712.593,16.758 713.756,15.731Z" style="fill:rgb(93,93,93);"/>
            </g>
        </g>
    </g>
</svg>
