<?xml version="1.0" encoding="UTF-8" standalone="no"?>
<!DOCTYPE svg PUBLIC "-//W3C//DTD SVG 1.1//EN" "http://www.w3.org/Graphics/SVG/1.1/DTD/svg11.dtd">
<svg width="100%" height="100%" viewBox="0 0 120 120" version="1.1" xmlns="http://www.w3.org/2000/svg" xmlns:xlink="http://www.w3.org/1999/xlink" xml:space="preserve" xmlns:serif="http://www.serif.com/" style="fill-rule:evenodd;clip-rule:evenodd;stroke-linejoin:round;stroke-miterlimit:2;">
    <g transform="matrix(1,0,0,1,-396.852,0)">
        <g id="cena-1" transform="matrix(1,0,0,1,396.852,0)">
            <rect x="0" y="0" width="120" height="120" style="fill:none;"/>
            <g transform="matrix(0.725275,0,0,0.725275,-264.005,19.7473)">
                <path d="M401.652,107.64L401.814,116.085C401.85,117.922 401.145,119.696 399.858,121.008C398.571,122.319 396.811,123.058 394.974,123.058L388.242,123.058C386.404,123.058 384.644,122.319 383.357,121.008C382.071,119.696 381.365,117.922 381.401,116.085L382.104,79.528C379.317,72.045 377.794,63.949 377.794,55.5C377.794,46.031 379.707,37.005 383.168,28.789C378.25,27.291 374.672,22.72 374.672,17.312L374.672,13.674L377.612,-10.842C377.702,-11.597 378.389,-12.137 379.145,-12.047C379.9,-11.956 380.44,-11.269 380.35,-10.514L377.455,13.625L390.528,13.625L390.528,-10.678C390.528,-11.439 391.146,-12.057 391.907,-12.057C392.668,-12.057 393.286,-11.439 393.286,-10.678L393.286,11.975C396.643,7.858 400.465,4.137 404.673,0.89L403.306,-10.514C403.215,-11.269 403.755,-11.956 404.511,-12.047C405.266,-12.137 405.953,-11.597 406.044,-10.842L407.225,-0.988C418.416,-8.833 432.041,-13.439 446.734,-13.439C461.837,-13.439 475.812,-8.572 487.175,-0.322C490.378,-7.866 496.637,-13.439 502.425,-13.439C510.653,-13.439 519.832,-2.176 519.832,10C519.832,19.095 517.018,26.143 510.441,29.127C513.812,37.253 515.673,46.161 515.673,55.5C515.673,63.756 514.218,71.676 511.552,79.016L512.265,116.126C512.301,117.963 511.596,119.737 510.309,121.049C509.022,122.361 507.262,123.1 505.425,123.1L498.693,123.1C496.855,123.1 495.095,122.361 493.808,121.049C492.522,119.737 491.816,117.963 491.852,116.126L492.018,107.464C479.902,118.034 464.06,124.439 446.734,124.439C429.504,124.439 413.742,118.105 401.652,107.64ZM495.793,54.626L494.609,116.179C494.588,117.276 495.009,118.335 495.777,119.118C496.545,119.901 497.596,120.342 498.693,120.342L505.425,120.342C506.521,120.342 507.572,119.901 508.34,119.118C509.109,118.335 509.529,117.276 509.508,116.179L508.325,54.626C508.32,54.367 508.109,54.16 507.85,54.16L496.267,54.16C496.009,54.16 495.798,54.367 495.793,54.626ZM488.532,4.201C488.045,6.071 487.775,8.022 487.775,10C487.775,16.382 489.173,21.675 492.775,24.836C494.135,26.03 495.804,26.89 497.795,27.394C498.671,27.614 499.285,28.401 499.285,29.303C499.301,30.249 499.301,31.263 499.301,31.263L499.301,50.849L504.816,50.849L504.816,29.471C504.817,28.53 505.478,27.719 506.4,27.529L506.693,27.467C507.643,27.257 508.522,26.966 509.331,26.598C510.356,26.132 511.27,25.543 512.075,24.836C515.677,21.675 517.075,16.382 517.075,10C517.075,3.458 514.118,-2.792 510.159,-6.744C507.786,-9.112 505.074,-10.682 502.425,-10.682C499.775,-10.682 497.063,-9.112 494.691,-6.744C492.543,-4.599 490.69,-1.779 489.444,1.398C489.088,2.306 488.782,3.243 488.532,4.201ZM399.057,116.138L397.874,54.585C397.869,54.326 397.658,54.119 397.399,54.119L385.816,54.119C385.558,54.119 385.347,54.326 385.342,54.585L384.158,116.138C384.137,117.234 384.558,118.294 385.326,119.077C386.094,119.86 387.145,120.301 388.242,120.301L394.974,120.301C396.07,120.301 397.121,119.86 397.889,119.077C398.658,118.294 399.078,117.234 399.057,116.138ZM492.091,103.677L493.036,54.573C493.069,52.812 494.506,51.403 496.267,51.403L496.543,51.403L496.543,29.912C488.435,27.561 485.018,20.024 485.018,10C485.018,7.382 485.442,4.806 486.19,2.376C475.169,-5.826 461.514,-10.682 446.734,-10.682C432.097,-10.682 418.564,-5.92 407.6,2.137L408.984,13.674L408.984,17.312C408.984,23.66 404.052,28.856 397.812,29.279L397.812,29.78L397.812,51.388C399.379,51.588 400.6,52.911 400.631,54.532L401.579,103.868C413.408,114.916 429.287,121.682 446.734,121.682C464.28,121.682 480.242,114.838 492.091,103.677ZM446.734,10C471.846,10 492.234,30.388 492.234,55.5C492.234,80.612 471.846,101 446.734,101C421.621,101 401.234,80.612 401.234,55.5C401.234,30.388 421.621,10 446.734,10ZM446.734,12.758C423.143,12.758 403.991,31.91 403.991,55.5C403.991,79.09 423.143,98.242 446.734,98.242C470.324,98.242 489.476,79.09 489.476,55.5C489.476,31.91 470.324,12.758 446.734,12.758ZM446.327,37.504C449.035,34.841 453.952,31.607 459.147,31.996C463.063,32.29 467.309,34.474 470.834,40.744C472.563,43.819 472.805,47.354 471.909,51.054C470.74,55.887 467.557,61.057 463.776,65.596C459.482,70.751 454.451,75.094 451.053,77.244C449.051,78.511 447.382,79.038 446.452,79.038C445.51,79.038 443.857,78.508 441.892,77.226C438.602,75.078 433.77,70.74 429.616,65.583C425.98,61.069 422.884,55.929 421.652,51.112C420.716,47.452 420.829,43.95 422.299,40.899C424.536,36.258 427.376,33.883 430.236,32.821C433.028,31.784 435.93,31.976 438.616,32.861C441.706,33.879 444.485,35.828 446.327,37.504ZM446.444,41.858C445.667,39.79 432.013,27.095 424.783,42.096C418.788,54.537 442.171,76.28 446.452,76.28C450.733,76.28 475.392,54.478 468.43,42.096C459.818,26.778 447.037,39.73 446.444,41.858C446.486,41.971 446.49,42.053 446.452,42.096C446.415,42.049 446.413,41.968 446.444,41.858ZM406.226,16.383L377.43,16.383L377.43,17.312C377.43,21.59 380.337,25.225 384.284,26.281C384.568,26.357 384.857,26.42 385.151,26.468L385.406,26.524C385.926,26.524 386.502,26.714 386.975,27.042C387.111,27.136 387.238,27.241 387.354,27.356C387.86,27.863 388.149,28.546 388.16,29.262L388.161,29.304L388.161,51.322L395.055,51.322L395.054,29.78L395.054,29.304L395.054,29.262C395.065,28.546 395.354,27.863 395.86,27.356C396.377,26.84 397.077,26.55 397.808,26.55C397.808,26.55 398.023,26.492 398.079,26.486C402.667,25.946 406.226,22.045 406.226,17.312L406.226,16.383ZM395.497,13.625L406.2,13.625L405.058,4.101C401.558,6.944 398.353,10.136 395.497,13.625ZM511.374,69.755C512.383,65.163 512.915,60.393 512.915,55.5C512.915,46.48 511.107,37.88 507.834,30.041L507.574,30.107L507.574,51.403L507.85,51.403C509.611,51.403 511.048,52.812 511.082,54.573L511.374,69.755ZM382.276,70.562L382.585,54.532C382.616,52.911 383.836,51.588 385.403,51.388L385.403,30.6C382.275,38.288 380.552,46.694 380.552,55.5C380.552,60.68 381.148,65.723 382.276,70.562Z" style="fill:rgb(93,93,93);"/>
            </g>
        </g>
    </g>
</svg>
