<?xml version="1.0" encoding="UTF-8" standalone="no"?>
<!DOCTYPE svg PUBLIC "-//W3C//DTD SVG 1.1//EN" "http://www.w3.org/Graphics/SVG/1.1/DTD/svg11.dtd">
<svg width="100%" height="100%" viewBox="0 0 120 120" version="1.1" xmlns="http://www.w3.org/2000/svg" xmlns:xlink="http://www.w3.org/1999/xlink" xml:space="preserve" xmlns:serif="http://www.serif.com/" style="fill-rule:evenodd;clip-rule:evenodd;stroke-linejoin:round;stroke-miterlimit:2;">
    <g transform="matrix(1,0,0,1,-264.568,0)">
        <g id="iglesia" transform="matrix(1,0,0,1,264.568,0)">
            <rect x="0" y="0" width="120" height="120" style="fill:none;"/>
            <g transform="matrix(1.03264,0,1.32143e-32,1.06218,-269.96,-5.69627)">
                <path d="M342.665,108.924L272,108.924C271.475,108.924 271.049,108.51 271.049,108L271.049,60.032C271.049,59.522 271.475,59.108 272,59.108L294.432,59.108L318.663,15.264C318.83,14.962 319.155,14.774 319.508,14.777C319.861,14.78 320.183,14.973 320.345,15.278L343.58,59.108L367,59.108C367.525,59.108 367.951,59.522 367.951,60.032L367.951,108C367.951,108.51 367.525,108.924 367,108.924L343.335,108.924C343.231,108.962 343.118,108.983 343,108.983C342.882,108.983 342.769,108.962 342.665,108.924ZM343.951,107.076L366.049,107.076L366.049,60.956L343.951,60.956L343.951,107.076ZM342.049,60.256L319.482,17.686L295.951,60.265L295.951,107.076L342.049,107.076L342.049,60.256ZM294.049,60.956L272.951,60.956L272.951,107.076L294.049,107.076L294.049,60.956ZM318.58,77.562L310.024,77.562C309.5,77.562 309.074,77.148 309.074,76.637C309.074,76.127 309.5,75.713 310.024,75.713L318.58,75.713L318.58,67.396C318.58,66.886 319.006,66.472 319.53,66.472C320.055,66.472 320.481,66.886 320.481,67.396L320.481,75.713L329.037,75.713C329.561,75.713 329.987,76.127 329.987,76.637C329.987,77.148 329.561,77.562 329.037,77.562L320.481,77.562L320.481,93.273C320.481,93.783 320.055,94.197 319.53,94.197C319.006,94.197 318.58,93.783 318.58,93.273L318.58,77.562Z" style="fill:rgb(93,93,93);"/>
            </g>
        </g>
    </g>
</svg>
