<?xml version="1.0" encoding="UTF-8" standalone="no"?>
<!DOCTYPE svg PUBLIC "-//W3C//DTD SVG 1.1//EN" "http://www.w3.org/Graphics/SVG/1.1/DTD/svg11.dtd">
<svg width="100%" height="100%" viewBox="0 0 120 120" version="1.1" xmlns="http://www.w3.org/2000/svg" xmlns:xlink="http://www.w3.org/1999/xlink" xml:space="preserve" xmlns:serif="http://www.serif.com/" style="fill-rule:evenodd;clip-rule:evenodd;stroke-linejoin:round;stroke-miterlimit:2;">
    <rect id="recepcion-1" x="0" y="0" width="120" height="120" style="fill:none;"/>
    <g id="recepcion-11" serif:id="recepcion-1">
        <g transform="matrix(0.22978,0,0,0.229888,7.27474,4.5)">
            <path d="M453.066,450.92C455.275,450.92 457.066,452.711 457.066,454.92C457.066,457.129 455.275,458.92 453.066,458.92L213.466,458.92C211.257,458.92 209.466,457.129 209.466,454.92C209.466,452.711 211.257,450.92 213.466,450.92L347.706,450.92C347.329,407.875 356.912,365.327 375.706,326.6C265.739,292.24 190.665,190.648 190.106,75.44C186.586,77.04 183.066,78.68 179.666,80.56C179.173,80.827 178.626,80.977 178.066,81C176.523,82.634 174.578,83.834 172.426,84.48C172.214,84.772 171.958,85.028 171.666,85.24C165.838,88.854 160.265,92.863 154.986,97.24C161.432,94.772 168.731,96.997 172.706,102.64C176.706,109.48 173.066,119 164.706,123.88C168.455,126.009 171.415,129.292 173.146,133.24C174.907,137.084 174.743,141.535 172.706,145.24C168.746,152.08 158.706,153.72 150.306,148.92C150.266,158.48 143.786,166.48 135.866,166.48C127.946,166.48 121.466,158.6 121.466,148.92C118.775,150.414 115.779,151.276 112.706,151.44C109.106,159.18 106.162,167.208 103.906,175.44C111.251,177.859 116.047,184.921 115.586,192.64C119.301,190.456 123.622,189.53 127.906,190C129.512,190.117 131.082,190.537 132.532,191.238C138.876,194.306 141.533,201.935 138.466,208.28C136.717,212.219 133.743,215.488 129.986,217.6C133.75,219.722 136.725,223.006 138.466,226.96C139.175,228.422 139.597,230.006 139.71,231.626C140.199,238.634 134.914,244.711 127.906,245.2C123.622,245.67 119.301,244.744 115.586,242.56C115.546,252.12 109.186,260.12 101.186,260.12C100.215,260.124 99.247,260.003 98.306,259.76L98.306,450.84L142.306,450.84C144.515,450.84 146.306,452.631 146.306,454.84C146.306,457.049 144.515,458.84 142.306,458.84L12.666,458.84C10.457,458.84 8.666,457.049 8.666,454.84C8.666,452.631 10.457,450.84 12.666,450.84L64.666,450.84L64.666,239.28L64.466,239.04C62.454,235.328 62.291,230.889 64.026,227.04C65.767,223.086 68.743,219.802 72.506,217.68C68.749,215.568 65.775,212.299 64.026,208.36C62.278,204.509 62.456,200.059 64.506,196.36C64.847,195.795 65.235,195.26 65.666,194.76L65.666,194.56C66.346,188.16 67.346,181.72 68.666,175.4C67.278,181.869 61.785,186.645 55.186,187.12C47.266,187.12 40.746,179.28 40.746,169.56C32.346,174.36 22.346,172.72 18.346,165.88C14.386,159 17.986,149.48 26.546,144.6C18.186,139.72 14.586,130.2 18.546,123.36C22.506,116.52 32.546,114.84 40.946,119.68C40.986,110.08 47.466,102.08 55.386,102.08C63.306,102.08 69.786,109.96 69.786,119.68C75.964,115.701 83.981,116.053 89.786,120.56C91.906,116.92 94.066,113.28 96.426,109.8C96.701,109.378 97.054,109.011 97.466,108.72C97.584,103.549 101.001,99.036 105.946,97.52C106.101,96.97 106.359,96.454 106.706,96C115.25,85.496 124.891,75.935 135.466,67.48C134.154,66.516 133.04,65.307 132.186,63.92C130.149,60.215 129.986,55.764 131.746,51.92C133.507,47.978 136.477,44.7 140.226,42.56C136.469,40.448 133.495,37.179 131.746,33.24C129.985,29.396 130.149,24.945 132.186,21.24C134.379,17.654 138.124,15.301 142.306,14.88C146.594,14.422 150.916,15.362 154.626,17.56C154.666,8 161.106,0 169.026,0C176.946,0 183.426,7.84 183.426,17.56C187.136,15.362 191.458,14.422 195.746,14.88C199.914,15.313 203.641,17.665 205.826,21.24C207.491,24.333 207.837,27.968 206.786,31.32C222.269,27.33 238.197,25.327 254.186,25.361C358.192,25.582 442.327,110.074 442.106,214.08L442.106,450.92L453.066,450.92ZM90.426,450.68L90.426,253.92C88.112,250.586 86.882,246.619 86.906,242.56C82.615,245.089 77.514,245.862 72.666,244.72L72.666,450.68L90.426,450.68ZM224.986,83.44C241.26,80.573 257.875,80.182 274.266,82.28L276.026,63.2C268.556,62.107 261.016,61.559 253.466,61.56C243.911,61.558 234.377,62.442 224.986,64.2L224.986,83.44ZM65.186,154.24C67.472,157.494 70.268,160.357 73.466,162.72C77.986,165.32 83.306,165 85.026,162C86.746,159 84.386,154.24 79.866,151.6C76.209,150.051 72.338,149.067 68.386,148.68C66.414,148.381 64.963,146.675 64.986,144.68C64.963,142.685 66.414,140.979 68.386,140.68C72.347,140.315 76.223,139.315 79.866,137.72C84.386,135.12 86.746,130.36 85.026,127.36C83.306,124.36 77.986,124.04 73.466,126.64C70.225,128.995 67.399,131.875 65.106,135.16C63.991,136.693 61.952,137.233 60.224,136.452C58.211,135.543 57.316,133.173 58.226,131.16C59.895,127.553 60.988,123.706 61.466,119.76C61.466,114.52 58.666,109.96 55.186,109.96C51.706,109.96 48.746,114.4 48.746,119.64C49.219,123.587 50.312,127.434 51.986,131.04C52.7,132.89 51.951,134.983 50.226,135.96C48.526,136.924 46.377,136.518 45.146,135C42.841,131.749 40.032,128.887 36.826,126.52C32.306,123.88 26.986,124.24 25.266,127.24C23.546,130.24 25.906,135 30.426,137.6C34.069,139.195 37.945,140.195 41.906,140.56C44.115,140.56 45.906,142.351 45.906,144.56C45.906,146.769 44.115,148.56 41.906,148.56C37.954,148.947 34.083,149.931 30.426,151.48C25.906,154.12 23.506,158.96 25.266,161.96C27.026,164.96 32.306,165.28 36.826,162.68C40.032,160.313 42.841,157.451 45.146,154.2C46.377,152.682 48.526,152.276 50.226,153.24C51.866,154.248 52.555,156.282 51.866,158.08C50.192,161.686 49.099,165.533 48.626,169.48C48.626,174.72 51.626,179.12 55.066,179.12C58.506,179.12 61.466,174.72 61.466,169.48C61.023,165.567 59.971,161.747 58.346,158.16C57.632,156.31 58.381,154.217 60.106,153.24C61.816,152.285 63.966,152.708 65.186,154.24ZM55.166,138.786C58.397,138.786 61.02,141.409 61.02,144.64C61.02,147.871 58.397,150.494 55.166,150.494C51.935,150.494 49.312,147.871 49.312,144.64C49.312,141.409 51.935,138.786 55.166,138.786ZM187.026,60.32C191.546,62.92 196.866,62.6 198.587,59.601C199.338,58.075 199.338,56.287 198.587,54.761C197.506,52.413 195.697,50.477 193.427,49.241C189.77,47.692 185.899,46.708 181.947,46.321C179.738,46.321 177.947,44.53 177.947,42.321C177.947,40.112 179.738,38.321 181.947,38.321C185.908,37.956 189.784,36.956 193.427,35.361C195.696,34.125 197.506,32.189 198.587,29.841C199.332,28.314 199.332,26.528 198.587,25.001C197.686,23.637 196.215,22.754 194.587,22.601C192.004,22.346 189.407,22.935 187.187,24.281C184,26.656 181.205,29.518 178.907,32.761C177.8,34.165 175.895,34.665 174.241,33.983C172.198,33.142 171.225,30.803 172.067,28.761C173.741,25.158 174.821,21.309 175.267,17.361C175.267,12.121 172.347,7.721 168.867,7.721C165.387,7.721 162.467,12.121 162.467,17.361C162.929,21.305 164.009,25.152 165.667,28.761C166.348,30.415 165.849,32.32 164.444,33.427C162.709,34.794 160.194,34.496 158.827,32.761C156.529,29.518 153.734,26.656 150.547,24.281C148.327,22.935 145.73,22.346 143.147,22.601C141.519,22.754 140.048,23.637 139.147,25.001C138.402,26.528 138.402,28.314 139.147,29.841C140.213,32.199 142.027,34.139 144.307,35.361C147.948,36.964 151.825,37.963 155.787,38.321C157.996,38.321 159.787,40.112 159.787,42.321C159.787,44.53 157.996,46.321 155.787,46.321C151.833,46.7 147.961,47.685 144.307,49.241C142.044,50.467 140.235,52.388 139.147,54.721L138.987,54.801C138.602,55.474 138.384,56.229 138.352,57.004C138.241,59.674 140.316,61.929 142.987,62.04C145.569,62.27 148.158,61.682 150.387,60.36C153.574,57.985 156.369,55.123 158.667,51.88C159.43,50.94 160.577,50.396 161.787,50.4C162.275,50.401 162.759,50.492 163.215,50.668C165.276,51.464 166.302,53.779 165.507,55.84C163.833,59.443 162.753,63.292 162.307,67.24C162.307,72.48 165.227,76.88 168.707,76.88C172.187,76.88 175.107,72.48 175.107,67.24C174.661,63.292 173.581,59.443 171.907,55.84C171.225,54.186 171.724,52.281 173.129,51.174C174.864,49.807 177.379,50.105 178.746,51.84C181.032,55.094 183.828,57.957 187.026,60.32ZM172.785,37.715C175.327,39.737 175.749,43.436 173.728,45.977C171.707,48.519 168.008,48.941 165.466,46.92C162.933,44.906 162.504,41.223 164.506,38.68L164.523,38.658C166.544,36.116 170.243,35.694 172.785,37.715ZM148.826,91.76C152.871,88.333 157.09,85.115 161.466,82.12C157.003,78.488 154.476,72.992 154.626,67.24C151.586,69.006 148.142,69.957 144.626,70C138.718,74.445 133.081,79.24 127.746,84.36C129.991,82.485 132.821,81.452 135.746,81.44C141.834,81.81 147.049,85.926 148.826,91.76ZM198.066,72.68C197.438,186.132 271.377,286.535 379.906,319.6L407.906,305.24L407.906,295.88C375.724,242.848 362.996,180.27 371.906,118.88C371.981,118.607 372.075,118.34 372.186,118.08C368.161,113.249 363.847,108.667 359.266,104.36L354.906,120.36C354.558,121.658 353.581,122.695 352.306,123.12C351.883,123.2 351.449,123.2 351.026,123.12C350.142,123.117 349.284,122.822 348.586,122.28C334.694,111.345 319.045,102.85 302.306,97.16C302.007,97.02 301.725,96.845 301.466,96.64C301.281,96.557 301.117,96.434 300.986,96.28C300.767,96.082 300.578,95.853 300.426,95.6C300.304,95.422 300.197,95.235 300.106,95.04C300.083,94.774 300.083,94.506 300.106,94.24C300.087,94 300.087,93.76 300.106,93.52L300.106,93.24L301.466,69.24C295.672,67.502 289.782,66.1 283.826,65.04L281.706,87.68C281.716,87.84 281.716,88 281.706,88.16C281.634,88.465 281.527,88.76 281.386,89.04L281.066,89.44C280.882,89.717 280.652,89.96 280.386,90.16L280.026,90.4C279.735,90.603 279.41,90.752 279.066,90.84L278.586,90.84C278.373,90.863 278.159,90.863 277.946,90.84L277.346,90.84C258.929,87.995 240.151,88.483 221.906,92.28L221.066,92.28C218.857,92.28 217.066,90.489 217.066,88.28L217.066,65.96C210.614,67.546 204.268,69.537 198.066,71.92C198.089,72.173 198.089,72.427 198.066,72.68ZM375.786,300.64C376.979,301.379 377.698,302.69 377.679,304.095C377.65,306.304 375.835,308.071 373.626,308.041C372.873,308.031 372.138,307.81 371.506,307.401C339.173,287.092 313.112,258.207 296.226,223.961L296.116,223.74C295.194,221.732 296.073,219.357 298.081,218.435C300.089,217.513 302.464,218.393 303.386,220.4C319.636,253.326 344.698,281.102 375.786,300.64ZM394.146,299.44C395.825,300.876 396.022,303.401 394.586,305.08C393.15,306.759 390.625,306.956 388.946,305.52C342.522,266.139 315.791,208.317 315.866,147.44C315.866,145.231 317.657,143.44 319.866,143.44C322.075,143.44 323.866,145.231 323.866,147.44C323.802,205.976 349.508,261.573 394.146,299.44ZM308.226,90.52C322.852,95.765 336.657,103.065 349.226,112.2L353.226,97.92C340.166,86.919 325.381,78.148 309.466,71.96L308.226,90.52ZM95.426,176.68C97.724,167.613 100.816,158.765 104.666,150.24C102.277,149.222 100.274,147.471 98.946,145.24C96.909,141.535 96.746,137.084 98.506,133.24C100.29,129.375 103.261,126.18 106.986,124.12C104.447,122.639 102.251,120.635 100.546,118.24L100.506,118.08C98.266,121.68 96.066,125.24 93.986,129C93.86,129.271 93.683,129.515 93.466,129.72C93.019,136.006 89.38,141.623 83.826,144.6C92.186,149.48 95.826,159 91.826,165.88C88.711,170.64 83.075,173.104 77.466,172.16C76.098,178.062 75.03,184.03 74.266,190.04L74.586,190.04C78.87,189.57 83.191,190.496 86.906,192.68C86.682,186.207 89.931,180.107 95.426,176.68ZM125.466,86.88C122.186,90.12 119.106,93.48 116.266,96.84C118.085,97.278 119.835,97.964 121.466,98.88C121.466,94.553 122.87,90.342 125.466,86.88ZM408.306,279.24L408.306,216.48C408.331,184.173 398.2,152.675 379.346,126.44C373.142,179.137 383.25,232.468 408.306,279.24ZM434.106,450.68L434.106,300.88L416.306,310L416.306,450.68L434.106,450.68ZM408.306,450.68L408.306,314.12L384.546,326.36C365.333,364.974 355.429,407.551 355.626,450.68L408.306,450.68ZM165.826,106.88C164.066,103.88 158.786,103.52 154.267,106.16C151.049,108.513 148.238,111.377 145.947,114.64C144.716,116.158 142.567,116.564 140.867,115.6C139.142,114.623 138.393,112.53 139.107,110.68C140.47,107.446 141.502,104.082 142.187,100.64C142.006,99.986 142.006,99.294 142.187,98.64C141.947,93.6 139.227,89.6 135.787,89.6C132.347,89.6 129.387,94.04 129.387,99.28C129.866,103.221 130.945,107.065 132.587,110.68C133.307,112.52 132.577,114.61 130.867,115.6C129.157,116.587 126.983,116.18 125.747,114.64C123.461,111.386 120.665,108.523 117.467,106.16C112.947,103.52 107.627,103.84 105.907,106.88L105.867,106.72C105.089,108.282 105.089,110.118 105.867,111.68C106.957,114.031 108.763,115.978 111.027,117.24C114.703,118.732 118.59,119.637 122.547,119.92C124.756,119.92 126.547,121.711 126.547,123.92C126.547,126.129 124.756,127.92 122.547,127.92C118.591,128.284 114.716,129.269 111.067,130.84C108.803,132.102 106.997,134.049 105.907,136.4C105.18,137.931 105.18,139.709 105.907,141.24C107.627,144.24 112.947,144.56 117.467,141.96C120.676,139.568 123.496,136.694 125.827,133.44C127.074,131.914 129.247,131.524 130.947,132.52C132.637,133.507 133.365,135.572 132.667,137.4C131.018,141.026 129.938,144.885 129.467,148.84C129.467,154.08 132.067,158.52 135.547,158.52C139.027,158.52 141.987,154.12 141.987,148.88C141.512,144.921 140.419,141.06 138.747,137.44C138.065,135.786 138.564,133.881 139.969,132.774C141.704,131.406 144.219,131.705 145.586,133.44C147.899,136.696 150.706,139.57 153.906,141.96C158.426,144.56 163.706,144.24 165.466,141.24C166.199,139.71 166.199,137.93 165.466,136.4C164.445,134.179 162.77,132.323 160.666,131.08C157.017,129.509 153.142,128.524 149.186,128.16C146.977,128.16 145.186,126.369 145.186,124.16C145.186,121.951 146.977,120.16 149.186,120.16C153.142,119.796 157.017,118.811 160.666,117.24C165.186,114.64 167.586,109.88 165.826,106.88ZM139.425,119.355C141.967,121.377 142.389,125.076 140.368,127.617C138.347,130.159 134.648,130.581 132.106,128.56L132.065,128.528C129.545,126.515 129.133,122.84 131.146,120.32L131.163,120.298C133.184,117.756 136.883,117.334 139.425,119.355ZM107.706,192.76C107.706,187.52 104.786,183.08 101.065,183.32C100.667,183.26 100.263,183.26 99.865,183.32C96.411,185.166 94.395,188.899 94.745,192.8C95.201,196.746 96.281,200.594 97.945,204.2C98.627,205.854 98.128,207.759 96.723,208.866C94.988,210.234 92.473,209.935 91.106,208.2C88.822,204.945 86.026,202.081 82.826,199.72C80.611,198.36 78.014,197.757 75.426,198C73.8,198.19 72.339,199.081 71.426,200.44C70.676,201.952 70.676,203.728 71.426,205.24C72.5,207.603 74.31,209.553 76.586,210.8C80.233,212.378 84.108,213.363 88.066,213.72C90.275,213.72 92.066,215.511 92.066,217.72C92.066,219.929 90.275,221.72 88.066,221.72C84.11,222.085 80.236,223.071 76.586,224.64C74.31,225.887 72.5,227.838 71.426,230.2C70.675,231.726 70.675,233.514 71.426,235.04C73.146,238.04 78.466,238.36 82.986,235.76C86.179,233.375 88.973,230.5 91.266,227.24C92.029,226.3 93.176,225.756 94.386,225.76C95.09,225.767 95.78,225.961 96.386,226.32C98.076,227.307 98.804,229.372 98.106,231.2C96.435,234.818 95.354,238.68 94.906,242.64C94.906,247.84 97.826,252.28 101.306,252.28C104.786,252.28 107.706,247.84 107.706,242.64C107.258,238.68 106.177,234.818 104.506,231.2C103.825,229.546 104.324,227.641 105.729,226.534C107.464,225.167 109.979,225.465 111.346,227.2C113.652,230.448 116.445,233.322 119.626,235.72C121.855,237.042 124.444,237.63 127.026,237.4C128.643,237.215 130.101,236.34 131.026,235C131.777,233.474 131.777,231.686 131.026,230.16C129.952,227.798 128.142,225.847 125.866,224.6C122.216,223.031 118.342,222.045 114.386,221.68C112.177,221.68 110.386,219.889 110.386,217.68C110.386,215.471 112.177,213.68 114.386,213.68C118.344,213.323 122.219,212.338 125.866,210.76C128.142,209.513 129.952,207.563 131.026,205.2C131.776,203.688 131.776,201.912 131.026,200.4C130.113,199.041 128.652,198.15 127.026,197.96C124.438,197.717 121.841,198.32 119.626,199.68C116.426,202.041 113.63,204.905 111.346,208.16C110.239,209.564 108.334,210.064 106.68,209.382C104.637,208.541 103.664,206.202 104.506,204.16C106.164,200.551 107.244,196.704 107.706,192.76ZM104.968,213.017C107.51,215.039 107.932,218.738 105.911,221.279C103.89,223.821 100.191,224.243 97.649,222.222C95.107,220.201 94.685,216.502 96.706,213.96C98.72,211.427 102.403,210.998 104.946,213L104.968,213.017ZM183.226,69.56L185.786,68.36C184.981,68.027 184.193,67.654 183.426,67.24C183.401,68.016 183.334,68.791 183.226,69.56ZM434.106,214.08L434.186,214.08C434.186,197.567 431.923,181.133 427.461,165.235C400.488,69.14 300.721,13.106 204.626,40.08C203.557,40.378 202.413,40.219 201.466,39.64C200.348,40.644 199.128,41.529 197.826,42.28C201.575,44.42 204.545,47.698 206.306,51.64C207.48,54.406 207.746,57.473 207.066,60.4C211.106,59.2 215.306,58.16 219.306,57.24C219.763,57.049 220.251,56.941 220.746,56.92C231.642,54.672 242.739,53.547 253.864,53.563C343.709,53.694 416.437,126.634 416.306,216.48L416.306,301L434.106,291.88L434.106,214.08ZM124.226,253.76C143.101,262.597 151.453,284.898 143.026,303.96C142.562,304.93 141.747,305.688 140.746,306.08C139.76,306.491 138.651,306.491 137.666,306.08C128.567,301.857 121.507,294.208 118.026,284.8C114.495,275.424 114.796,265.035 118.866,255.88C119.309,254.894 120.131,254.13 121.146,253.76C122.132,253.349 123.24,253.349 124.226,253.76ZM137.186,296.68C140.717,284.018 135.675,270.524 124.706,263.28C122.974,269.443 123.24,275.997 125.466,282C127.718,288.012 131.822,293.153 137.186,296.68ZM57.746,211.44C58.524,212.182 58.971,213.205 58.986,214.28C59.372,235.105 43.038,252.417 22.226,253.24C20.017,253.24 18.226,251.449 18.226,249.24C17.976,239.15 21.729,229.371 28.666,222.04C30.068,220.593 31.579,219.255 33.186,218.04C30.887,217.97 28.599,217.703 26.346,217.24C16.564,215.117 8.005,209.243 2.506,200.88C1.92,199.983 1.718,198.887 1.946,197.84C2.173,196.778 2.823,195.853 3.746,195.28C21.412,184.373 44.553,189.537 55.906,206.92C56.506,207.812 56.723,208.907 56.506,209.96C56.426,210.2 56.226,210.36 56.226,210.6C56.788,210.765 57.307,211.052 57.746,211.44ZM42.906,235.6C47.313,230.924 50.127,224.973 50.946,218.6C38.025,221.011 28.135,231.483 26.466,244.52C32.758,243.353 38.515,240.215 42.906,235.56L42.906,235.6ZM11.746,199.96C20.458,209.793 34.528,212.865 46.546,207.56C42.346,202.791 36.746,199.473 30.546,198.08L30.546,198.12C24.243,196.719 17.658,197.363 11.746,199.96ZM108.186,58.92C113.131,79.167 100.97,99.65 80.826,105C79.782,105.275 78.671,105.116 77.746,104.56C76.825,104.013 76.163,103.12 75.906,102.08C75.086,98.65 74.736,95.124 74.866,91.6C72.238,92.18 69.557,92.488 66.866,92.52C59.991,92.515 53.246,90.649 47.346,87.12C38.678,81.977 32.406,73.604 29.906,63.84L29.883,63.751C29.362,61.605 30.679,59.442 32.826,58.92C46.653,55.595 61.182,60.218 70.546,70.92L69.106,65.28C69.068,65.068 69.068,64.852 69.106,64.64C52.178,53.501 46.909,31.072 57.106,13.56C57.645,12.624 58.539,11.946 59.586,11.68C60.623,11.428 61.717,11.601 62.626,12.16C79.96,22.638 86.088,44.833 76.586,62.72C76.666,62.92 76.866,63.08 76.866,63.28L79.666,74.44C79.866,74.12 80.186,73.76 80.186,73.44C85.302,64.832 93.588,58.571 103.266,56L103.355,55.977C105.501,55.456 107.664,56.773 108.186,58.92ZM70.866,56.08C75.75,43.892 72.211,29.945 62.106,21.56C59.699,27.492 59.265,34.042 60.866,40.24C62.436,46.447 65.938,51.993 70.866,56.08ZM82.946,95.88C95.008,90.686 102.355,78.317 101.146,65.24C95.258,67.738 90.324,72.056 87.066,77.56C83.786,83.076 82.343,89.491 82.946,95.88ZM51.546,80.36C57.044,83.602 63.435,85.004 69.786,84.36C67.292,78.469 62.974,73.534 57.466,70.28C51.953,67.037 45.55,65.636 39.186,66.28C41.67,72.189 46.008,77.131 51.546,80.36Z" style="fill:rgb(93,93,93);"/>
        </g>
    </g>
</svg>
