<?xml version="1.0" encoding="UTF-8" standalone="no"?>
<!DOCTYPE svg PUBLIC "-//W3C//DTD SVG 1.1//EN" "http://www.w3.org/Graphics/SVG/1.1/DTD/svg11.dtd">
<svg width="100%" height="100%" viewBox="0 0 120 120" version="1.1" xmlns="http://www.w3.org/2000/svg" xmlns:xlink="http://www.w3.org/1999/xlink" xml:space="preserve" xmlns:serif="http://www.serif.com/" style="fill-rule:evenodd;clip-rule:evenodd;stroke-linejoin:round;stroke-miterlimit:2;">
    <g transform="matrix(1,0,0,1,-793.704,0)">
        <g id="recepcion-2" transform="matrix(1,0,0,1,793.704,0)">
            <rect x="0" y="0" width="120" height="120" style="fill:none;"/>
            <g transform="matrix(1,0,0,1,-790.742,-0.449828)">
                <path d="M813.837,106.027L813.837,62.932C813.837,53.145 817.725,43.758 824.646,36.837C830.693,30.791 838.622,27.059 847.056,26.213C839.682,22.043 838.028,15.051 838.322,12.737C839.061,6.905 844.879,4.604 850.742,9.204C856.606,4.604 862.424,6.905 863.163,12.737C863.456,15.051 861.803,22.043 854.429,26.213C862.863,27.059 870.792,30.791 876.839,36.837C883.76,43.758 887.648,53.145 887.648,62.932L887.648,105.862C887.648,110.433 883.942,114.138 879.371,114.138C874.801,114.138 871.095,110.433 871.095,105.863L871.095,99.121L871.093,99.121L871.093,97.121L871.095,97.121L871.094,84.587L871.093,84.587L871.093,82.587L871.094,82.587L871.094,67.024C865.176,65.342 860.906,62.651 857.819,59.333C853.768,54.982 851.749,49.514 850.742,43.738C849.736,49.514 847.716,54.982 843.666,59.333C840.578,62.651 836.309,65.342 830.391,67.024L830.39,82.587L830.392,82.587L830.392,84.587L830.39,84.587L830.39,97.121L830.39,99.121L830.39,106.028C830.39,110.507 826.758,114.138 822.279,114.138L821.948,114.138C817.469,114.138 813.837,110.507 813.837,106.027ZM885.648,82.587L885.648,68.933C880.847,68.861 876.692,68.373 873.094,67.539L873.094,82.587L885.648,82.587ZM828.391,82.587L828.391,67.539C824.793,68.373 820.637,68.861 815.837,68.933L815.837,82.587L828.391,82.587ZM873.095,99.121L873.095,105.863C873.095,109.329 875.905,112.138 879.371,112.138C882.837,112.138 885.648,109.329 885.648,105.862L885.648,99.121L873.095,99.121ZM885.648,97.121L885.648,84.587L873.094,84.587L873.095,97.121L885.648,97.121ZM828.39,97.121L828.391,84.587L815.837,84.587L815.837,97.121L828.39,97.121ZM815.837,99.121L815.837,106.027C815.837,109.402 818.573,112.138 821.948,112.138L822.279,112.138C825.654,112.138 828.39,109.403 828.39,106.028L828.39,99.121L815.837,99.121ZM849.742,28.043C840.847,28.297 832.37,31.941 826.06,38.251C819.515,44.797 815.837,53.675 815.837,62.932L815.837,66.933C820.677,66.859 824.829,66.354 828.391,65.488L828.391,62.41C828.391,50.573 837.615,40.89 849.268,40.156C849.71,36.104 849.741,31.968 849.742,28.043ZM885.648,66.933L885.648,62.932C885.648,53.675 881.97,44.797 875.424,38.251C869.115,31.941 860.637,28.297 851.742,28.043C851.744,31.968 851.774,36.104 852.217,40.156C863.87,40.89 873.093,50.573 873.094,62.41L873.094,65.488C876.655,66.354 880.808,66.859 885.648,66.933ZM830.391,64.945C835.601,63.378 839.416,60.964 842.202,57.971C846.274,53.596 848.148,48.029 849.009,42.18C838.585,43.035 830.391,51.766 830.391,62.41L830.391,64.945ZM850.742,25.735C859.376,22.443 861.466,15.252 861.179,12.988C860.921,10.952 859.857,9.473 858.265,8.963C856.491,8.396 854.258,8.988 851.977,10.778L850.742,11.746L849.508,10.778C847.226,8.988 844.994,8.396 843.22,8.963C841.628,9.473 840.564,10.952 840.306,12.988C840.019,15.252 842.109,22.443 850.742,25.735ZM852.476,42.18C853.337,48.029 855.211,53.596 859.283,57.971C862.069,60.964 865.884,63.378 871.094,64.945L871.094,62.41C871.093,51.766 862.9,43.035 852.476,42.18Z" style="fill:rgb(93,93,93);"/>
            </g>
        </g>
    </g>
</svg>
