<?xml version="1.0" encoding="UTF-8" standalone="no"?>
<!DOCTYPE svg PUBLIC "-//W3C//DTD SVG 1.1//EN" "http://www.w3.org/Graphics/SVG/1.1/DTD/svg11.dtd">
<svg width="100%" height="100%" viewBox="0 0 120 120" version="1.1" xmlns="http://www.w3.org/2000/svg" xmlns:xlink="http://www.w3.org/1999/xlink" xml:space="preserve" xmlns:serif="http://www.serif.com/" style="fill-rule:evenodd;clip-rule:evenodd;stroke-linejoin:round;stroke-miterlimit:2;">
    <g transform="matrix(1,0,0,1,-1190.56,0)">
        <g id="sesion" transform="matrix(1,0,0,1,1190.56,0)">
            <rect x="0" y="0" width="120" height="120" style="fill:none;"/>
            <g transform="matrix(5.51876,0,0,5.5347,100.889,35.1959)">
                <path d="M-0.021,-0.181L0,-0.181C1.012,-0.181 1.832,0.639 1.832,1.651L1.832,8.895C1.832,9.907 1.012,10.727 0,10.727L-14.817,10.727C-15.829,10.727 -16.65,9.907 -16.65,8.895L-16.65,1.651C-16.65,0.639 -15.829,-0.181 -14.818,-0.181L-11.461,-0.181L-10.884,-1.649C-10.857,-1.718 -10.79,-1.764 -10.716,-1.764L-4.102,-1.764C-4.027,-1.764 -3.96,-1.718 -3.933,-1.649L-3.356,-0.181L-1.967,-0.181L-1.967,-0.792C-1.967,-1.329 -1.531,-1.764 -0.994,-1.764C-0.456,-1.764 -0.021,-1.329 -0.021,-0.792L-0.021,-0.181ZM-11.338,0.181L-14.818,0.181C-15.629,0.181 -16.288,0.839 -16.288,1.651L-16.288,8.895C-16.288,9.707 -15.629,10.365 -14.817,10.365L-0,10.365C0.812,10.365 1.47,9.707 1.47,8.895L1.47,1.651C1.47,0.839 0.812,0.181 0,0.181L-0.202,0.181L-11.338,0.181ZM-3.745,-0.181L-4.225,-1.402L-10.592,-1.402L-11.072,-0.181L-3.745,-0.181ZM-0.383,-0.181L-0.383,-0.792C-0.383,-1.129 -0.656,-1.402 -0.994,-1.402C-1.331,-1.402 -1.604,-1.129 -1.604,-0.792L-1.604,-0.181L-0.383,-0.181ZM-3.89,5.584C-3.89,7.526 -5.467,9.103 -7.409,9.103C-9.351,9.103 -10.927,7.526 -10.927,5.584C-10.927,3.642 -9.351,2.065 -7.409,2.065C-5.467,2.065 -3.89,3.642 -3.89,5.584ZM-4.252,5.584C-4.252,3.842 -5.667,2.427 -7.409,2.427C-9.151,2.427 -10.565,3.842 -10.565,5.584C-10.565,7.327 -9.151,8.741 -7.409,8.741C-5.667,8.741 -4.252,7.327 -4.252,5.584ZM-7.409,8.161C-8.83,8.161 -9.986,7.005 -9.986,5.584C-9.986,4.163 -8.83,3.008 -7.409,3.008C-5.988,3.008 -4.832,4.163 -4.832,5.584C-4.832,7.005 -5.988,8.161 -7.409,8.161ZM-7.409,7.8C-6.188,7.8 -5.194,6.806 -5.194,5.584C-5.194,4.362 -6.188,3.369 -7.409,3.369C-8.63,3.369 -9.624,4.362 -9.624,5.584C-9.624,6.806 -8.63,7.8 -7.409,7.8ZM-12.71,3.839L-14.257,3.839C-14.822,3.839 -15.279,3.383 -15.279,2.818L-15.279,2.317C-15.279,1.753 -14.822,1.296 -14.257,1.296L-12.71,1.296C-12.146,1.296 -11.688,1.753 -11.688,2.317L-11.688,2.818C-11.688,3.383 -12.146,3.839 -12.71,3.839ZM-12.71,3.478C-12.346,3.478 -12.05,3.183 -12.05,2.818L-12.05,2.317C-12.05,1.952 -12.346,1.657 -12.71,1.657L-14.257,1.657C-14.622,1.657 -14.917,1.952 -14.917,2.317L-14.917,2.818C-14.917,3.183 -14.622,3.478 -14.257,3.478L-12.71,3.478Z" style="fill:rgb(93,93,93);"/>
            </g>
        </g>
    </g>
</svg>
