<?xml version="1.0" encoding="UTF-8" standalone="no"?>
<!DOCTYPE svg PUBLIC "-//W3C//DTD SVG 1.1//EN" "http://www.w3.org/Graphics/SVG/1.1/DTD/svg11.dtd">
<svg width="100%" height="100%" viewBox="0 0 120 120" version="1.1" xmlns="http://www.w3.org/2000/svg" xmlns:xlink="http://www.w3.org/1999/xlink" xml:space="preserve" xmlns:serif="http://www.serif.com/" style="fill-rule:evenodd;clip-rule:evenodd;stroke-linejoin:round;stroke-miterlimit:2;">
    <g transform="matrix(1,0,0,1,-529.136,0)">
        <g id="vals" transform="matrix(1,0,0,1,529.136,0)">
            <rect x="0" y="0" width="120" height="120" style="fill:none;"/>
            <g transform="matrix(1,0,0,1,-523.397,0)">
                <path d="M571.528,108.39C566.016,109.178 552.774,108.84 545.666,105.902C542.084,104.422 540.046,102.21 540.517,99.43C540.608,98.89 540.775,98.281 541.014,97.611C541.031,97.539 541.057,97.468 541.091,97.4C541.963,95.053 543.677,92.006 546.066,88.633C552.838,79.071 565.017,66.741 577.871,60.196C575.915,59.279 574.311,58.08 573.648,56.793C572.946,55.43 572.719,53.414 572.945,51.408C573.138,49.7 573.655,48.008 574.412,46.749C574.248,46.448 574.1,46.144 573.97,45.838C572.64,42.698 571.827,34.697 571.957,27.511C568.146,26.273 566.329,23.822 565.942,21.44C565.522,18.845 566.774,16.236 569.189,14.937C570.582,14.188 572.375,13.869 574.463,14.297C575.87,12.527 578.271,11.533 580.939,11.248C582.09,11.125 583.286,11.135 584.459,11.259C584.88,8.958 586.527,6.828 588.306,5.681C590.546,4.236 594.585,3.795 598.014,4.41C600.403,4.838 602.476,5.791 603.539,7.136C605.54,9.666 606.363,13.624 606.587,16.988C606.59,17.012 606.593,17.035 606.594,17.059C606.893,21.515 609.711,23.429 612.804,24.852C614.872,25.804 617.069,26.545 618.883,27.545C620.223,28.283 621.363,29.163 622.154,30.315C625.468,35.134 627.874,42.695 627.872,46.868C627.881,46.948 627.88,47.028 627.869,47.108C627.861,47.476 627.832,47.814 627.781,48.119C627.368,50.625 626.04,52.453 624.339,53.241C622.678,54.01 620.605,53.856 618.53,52.253L617.559,81.002C621.624,90.102 624.661,98.791 625.764,104.224C626.26,106.666 626.348,108.505 626.057,109.518C625.837,110.283 625.411,110.727 624.905,110.929C609.627,117.02 583.776,115.523 571.528,108.39ZM542.817,98.485C542.665,98.947 542.555,99.374 542.489,99.764C542.342,100.631 542.634,101.379 543.223,102.032C543.945,102.831 545.064,103.489 546.43,104.054C552.289,106.476 562.499,107.036 568.603,106.665C557.976,100.535 551.415,98.47 547.457,98.003C544.686,97.675 543.234,98.271 542.817,98.485ZM580.411,61.181C567.252,67.32 554.604,80.037 547.698,89.789C546.07,92.089 544.759,94.215 543.851,96.04C544.798,95.878 546.053,95.823 547.692,96.017C552.103,96.538 559.67,98.922 572.246,106.491C583.937,113.527 609.162,115.005 624.074,109.107C624.107,108.992 624.217,108.583 624.229,108.237C624.261,107.341 624.107,106.114 623.804,104.622C622.718,99.269 619.723,90.692 615.717,81.719C615.658,81.63 615.613,81.531 615.586,81.426C610.2,69.421 603.024,56.765 596.192,50.215C594.464,49.005 592.841,47.462 591.466,46.722C590.146,48.497 588.16,50.67 585.422,52.562C586.165,52.903 586.905,53.222 587.555,53.556C588.443,54.013 589.176,54.514 589.629,55.081C590.68,56.398 590.991,58.4 590.187,59.941C589.648,60.975 588.624,61.84 586.94,62.125C585.559,62.359 582.955,61.994 580.411,61.181ZM575.693,48.622C575.308,49.518 575.052,50.574 574.933,51.632C574.755,53.21 574.874,54.804 575.426,55.877C575.98,56.952 577.459,57.845 579.136,58.573C579.3,58.644 579.466,58.714 579.633,58.781C579.728,57.482 579.985,56.024 580.51,54.758C580.778,54.113 581.114,53.518 581.526,53.006C579.227,51.964 577.172,50.414 575.693,48.622ZM573.949,28.009C573.86,34.753 574.57,42.126 575.812,45.058C575.976,45.446 576.175,45.828 576.404,46.202C576.428,46.238 576.45,46.274 576.471,46.311C577.9,48.572 580.444,50.513 583.285,51.569C586.687,49.472 588.974,46.836 590.304,44.911L590.735,44.288L591.451,44.533C593.093,45.097 595.191,47.084 597.397,48.617C597.397,48.617 597.398,48.617 597.398,48.618C598.373,49.294 599.459,50.321 600.589,51.067C601.434,51.624 602.287,52.072 603.143,51.738C603.792,51.485 604.756,50.762 605.868,49.782C607.594,48.262 609.625,46.125 611.326,43.936C611.356,43.895 611.388,43.854 611.421,43.814C612.424,42.514 613.308,41.199 613.938,39.988C614.413,39.076 614.743,38.234 614.833,37.516C614.85,37.385 614.86,37.259 614.859,37.141C614.852,37.088 614.85,37.034 614.851,36.98C614.828,36.764 614.757,36.578 614.604,36.436C612.734,34.706 610.937,36.099 609.146,37.798C607.811,39.064 606.503,40.581 605.238,41.729C604.277,42.602 603.323,43.268 602.408,43.557L601.924,43.71L601.515,43.411C600.194,42.444 599.013,41.598 597.949,40.858C597.909,40.832 597.871,40.805 597.833,40.777C591.929,36.68 589.663,35.888 586.988,35.841C586.523,35.86 586.068,35.866 585.638,35.866C585.623,35.866 585.609,35.867 585.594,35.867C585.06,35.867 584.618,35.444 584.595,34.91C584.595,34.896 584.594,34.881 584.594,34.867C584.594,34.332 585.017,33.891 585.551,33.868C585.565,33.867 585.58,33.866 585.594,33.866C586.14,33.843 586.652,33.828 587.154,33.836C587.889,33.8 588.64,33.722 589.326,33.554C590.246,33.329 591.068,32.974 591.375,32.167C591.536,31.743 591.761,30.613 591.951,29.118C591.951,29.033 591.961,28.95 591.981,28.872C592.209,26.993 592.376,24.595 592.3,22.298C592.28,21.695 592.247,21.098 592.193,20.52C591.491,21.733 590.478,22.918 589.209,23.982C585.578,27.023 579.878,29.095 573.949,28.009ZM573.455,16.157C572.161,15.999 571.037,16.215 570.137,16.699C568.492,17.583 567.63,19.354 567.917,21.12C568.192,22.818 569.5,24.442 572.024,25.414C572.2,21.649 572.676,18.28 573.455,16.157ZM585.04,13.326C583.761,13.138 582.422,13.101 581.152,13.237C578.859,13.481 576.759,14.279 575.745,15.947C574.682,17.698 574.169,21.582 574.001,25.982C574.041,25.99 574.081,25.998 574.121,26.006C579.478,27.055 584.647,25.194 587.924,22.449C589.979,20.727 591.31,18.674 591.31,16.776C591.31,16.76 591.31,16.743 591.311,16.726C591.134,16.362 590.928,16.043 590.687,15.78C589.601,14.59 587.591,13.751 585.361,13.376C585.359,13.376 585.357,13.376 585.355,13.376C585.245,13.376 585.139,13.359 585.04,13.326ZM604.597,17.11C604.412,14.118 603.74,10.614 601.971,8.377C601.151,7.34 599.503,6.709 597.661,6.378C594.744,5.855 591.295,6.133 589.39,7.362C588.038,8.234 586.744,9.834 586.428,11.579C588.836,12.11 590.967,13.119 592.164,14.431C593.56,15.961 594.192,18.996 594.299,22.232C594.364,24.186 594.256,26.207 594.079,27.968C595.206,27.698 596.549,27.082 597.897,26.269C597.986,26.189 598.089,26.125 598.201,26.082C599.407,25.329 600.604,24.427 601.643,23.484C602.715,22.509 603.618,21.485 604.163,20.508C604.462,19.972 604.654,19.463 604.654,18.995C604.654,18.479 604.641,17.93 604.611,17.36C604.607,17.304 604.603,17.249 604.599,17.193C604.597,17.165 604.596,17.137 604.597,17.11ZM625.707,44.569C625.104,40.638 623.063,35.167 620.506,31.448C619.717,30.3 618.462,29.529 617.041,28.847C615.457,28.086 613.667,27.451 611.968,26.669C610.849,26.154 609.77,25.578 608.799,24.879C606.393,31.582 603.229,36.31 599.464,39.397L599.463,39.48C600.321,40.079 601.246,40.74 602.247,41.469C602.941,41.124 603.645,40.504 604.377,39.795C605.929,38.291 607.545,36.375 609.19,35.121C610.484,34.135 611.817,33.553 613.14,33.646C614.073,33.712 615.022,34.098 615.963,34.969C616.405,35.379 616.684,35.899 616.797,36.517L625.707,44.569ZM607.174,23.468C606.656,22.916 606.196,22.3 605.813,21.603C605.166,22.718 604.182,23.879 602.987,24.964C601.952,25.905 600.769,26.793 599.559,27.557L599.486,36.697C602.578,33.689 605.159,29.348 607.174,23.468ZM618.291,49.436C618.731,49.816 619.144,50.166 619.507,50.472C620.938,51.68 622.353,51.957 623.498,51.426C624.685,50.876 625.52,49.542 625.808,47.794C625.829,47.669 625.845,47.538 625.858,47.401L620.73,42.767C619.939,44.943 618.284,46.402 615.778,47.144C616.591,47.937 617.442,48.7 618.215,49.37C618.241,49.391 618.267,49.413 618.291,49.436ZM615.694,76.955L616.585,50.596C615.462,49.608 614.215,48.452 613.142,47.293C613.093,47.249 613.049,47.201 613.01,47.149C612.697,46.806 612.4,46.464 612.127,46.126C610.524,48.072 608.743,49.915 607.19,51.283C605.847,52.466 604.653,53.296 603.87,53.601C603.267,53.836 602.657,53.892 602.047,53.809C606.884,60.018 611.672,68.483 615.694,76.955ZM581.597,59.464C583.586,60.055 585.523,60.337 586.606,60.153C587.524,59.997 588.119,59.581 588.413,59.017C588.859,58.163 588.648,57.058 588.066,56.329C587.76,55.946 587.24,55.643 586.64,55.335C585.687,54.844 584.542,54.384 583.475,53.843C582.985,54.274 582.629,54.869 582.358,55.524C581.841,56.772 581.641,58.241 581.597,59.464ZM616.536,38.976C616.342,39.584 616.064,40.235 615.712,40.912C615.118,42.052 614.314,43.28 613.398,44.508C613.634,44.825 613.898,45.147 614.182,45.472C616.877,44.957 618.554,43.602 619.079,41.275L616.536,38.976ZM591.601,34.788C593.126,35.423 594.972,36.459 597.474,38.123L597.55,28.7C596.204,29.38 594.907,29.859 593.826,30.039C593.624,31.427 593.402,32.464 593.244,32.878C592.928,33.71 592.352,34.335 591.601,34.788Z" style="fill:rgb(93,93,93);"/>
            </g>
        </g>
    </g>
</svg>
