<svg xmlns="http://www.w3.org/2000/svg" xmlns:xlink="http://www.w3.org/1999/xlink" fill="none" version="1.1" width="40" height="67" viewBox="0 0 40 67"><g><g><g><path d="M32.510147470092775,13.342607498168945Q31.198447470092773,15.442237498168945,31.294347470092774,19.837117498168944L31.294347470092774,41.661907498168944C31.294347470092774,44.932707498168945,29.964447470092775,47.89660749816895,27.818047470092772,50.04500749816894C25.661247470092775,52.20040749816894,22.680047470092774,53.53510749816895,19.390447470092774,53.53510749816895C12.821517470092774,53.53510749816895,7.486547470092773,48.21490749816895,7.486547470092773,41.661907498168944C7.486547470092773,38.429307498168946,8.785287470092774,35.49700749816894,10.887667470092774,33.355007498168945C10.900627470092774,33.34310749816895,10.910977470092774,33.33120749816895,10.923937470092774,33.31940749816894C11.481287470092774,32.76090749816895,12.222707470092773,32.38440749816894,13.049637470092772,32.28640749816894C13.189627470092773,32.269607498168945,13.332207470092772,32.26110749816895,13.479977470092773,32.26110749816895C15.470867470092774,32.26110749816895,17.088477470092773,33.874507498168946,17.088477470092773,35.86150749816895C17.088477470092773,37.848607498168946,15.470867470092774,39.462007498168944,13.479977470092773,39.462007498168944C11.486477470092773,39.462007498168944,9.868887470092773,37.848607498168946,9.868887470092773,35.86150749816895C9.868887470092773,35.736407498168944,9.876667470092773,35.61280749816895,9.887017470092774,35.49080749816895C8.725667470092773,37.26580749816895,8.051666470092773,39.385807498168944,8.051666470092773,41.661907498168944C8.051666470092773,47.90440749816894,13.132597470092772,52.972507498168945,19.390447470092774,52.972507498168945C28.123947470092773,52.972507498168945,27.818047470092772,44.73930749816894,27.818047470092772,41.72240749816895L27.818047470092772,18.568007498168946C24.292547470092774,20.949637498168947,20.549247470092773,21.531067498168944,19.328247470092773,19.837117498168944C18.68274747009277,18.941707498168945,18.866747470092776,17.582367498168946,19.683347470092773,16.119777498168943C19.706747470092772,16.075587498168947,19.732647470092772,16.031327498168945,19.758547470092772,15.986987498168945C19.978947470092773,15.642137498168946,20.33664747009277,15.393607498168945,20.756647470092773,15.319137498168946C20.756647470092773,15.319007498168945,20.759147470092774,15.318877498168945,20.759147470092774,15.318727498168945L20.759147470092774,15.319137498168946C20.844747470092774,15.304017498168946,20.930247470092773,15.296077498168945,21.02094747009277,15.295947498168946Q21.02094747009277,15.295947498168946,21.023647470092776,15.295947498168946C21.847947470092773,15.296977498168946,22.516747470092774,15.965267498168945,22.516747470092774,16.788247498168946C22.516747470092774,17.611227498168944,21.847947470092773,18.279507498168947,21.023647470092776,18.280537498168947Q21.02094747009277,18.280537498168947,21.02094747009277,18.280537498168947C20.391047470092772,18.279737498168945,19.85184747009277,17.890957498168945,19.631547470092773,17.341467498168946L19.631547470092773,17.344027498168945C19.317847470092772,18.244727498168945,19.33344747009277,19.038077498168946,19.742947470092773,19.605907498168946C20.842147470092776,21.132747498168946,24.403947470092774,20.475117498168945,27.818047470092772,18.160777498168947C27.945047470092774,18.074307498168945,28.072047470092773,17.985517498168946,28.199147470092772,17.894427498168945C29.453847470092775,16.993667498168946,30.508847470092775,15.990057498168945,31.294347470092774,14.999607498168945C31.584647470092772,14.631927498168945,31.841347470092774,14.266065498168945,32.05384747009278,13.907929498168945C32.05644747009278,13.904206498168945,32.05904747009278,13.900482498168945,32.06164747009277,13.896785498168946C32.19904747009277,13.667749498168945,32.34934747009277,13.480291498168945,32.510147470092775,13.342607498168945Z" fill-rule="evenodd" fill="#FFFFFF" fill-opacity="1" style="mix-blend-mode:passthrough"/></g></g><g><g><path d="M40,20.1149L40,46.9085C40,57.9178,31.037,67,20.0013,67C8.963,67,0,57.9178,0,46.9085L0,20.1149C0,9.10552,8.963,0,20.0013,0C31.037,0,40,9.10552,40,20.1149ZM39.2099,20.1149C39.2099,9.54082,30.6009,0.788825,20.0013,0.788825C9.39909,0.788825,0.792673,9.54082,0.792673,20.1149L0.792673,46.9085C0.792673,57.4825,9.39909,66.2112,20.0013,66.2112C30.6009,66.2112,39.2099,57.4825,39.2099,46.9085L39.2099,20.1149Z" fill-rule="evenodd" fill="#FFFFFF" fill-opacity="1" style="mix-blend-mode:passthrough"/></g></g></g></svg>